<?xml version="1.0" encoding="utf-8"?>
<!-- Generator: Adobe Illustrator 23.0.4, SVG Export Plug-In . SVG Version: 6.00 Build 0)  -->
<svg version="1.1" id="Layer_1" xmlns="http://www.w3.org/2000/svg" xmlns:xlink="http://www.w3.org/1999/xlink" x="0px" y="0px"
	 viewBox="0 0 64 64" style="enable-background:new 0 0 64 64;" xml:space="preserve">
<style type="text/css">
	.st0{clip-path:url(#SVGID_2_);}
	.st1{fill:none;stroke:#010101;stroke-width:2.016;stroke-miterlimit:10;}
</style>
<g>
	<defs>
		<rect id="SVGID_1_" y="0" width="64" height="64"/>
	</defs>
	<clipPath id="SVGID_2_">
		<use xlink:href="#SVGID_1_"  style="overflow:visible;"/>
	</clipPath>
	<g class="st0">
		<g>
			<line class="st1" x1="12" y1="8" x2="4" y2="0"/>
		</g>
		<line class="st1" x1="12" y1="0" x2="4" y2="8"/>
		<g>
			<line class="st1" x1="28" y1="16" x2="20" y2="8"/>
		</g>
		<line class="st1" x1="28" y1="8" x2="20" y2="16"/>
		<g>
			<line class="st1" x1="44" y1="8" x2="36" y2="0"/>
		</g>
		<line class="st1" x1="44" y1="0" x2="36" y2="8"/>
		<g>
			<line class="st1" x1="60" y1="16" x2="52" y2="8"/>
		</g>
		<line class="st1" x1="60" y1="8" x2="52" y2="16"/>
		<g>
			<line class="st1" x1="12" y1="24" x2="4" y2="16"/>
		</g>
		<line class="st1" x1="12" y1="16" x2="4" y2="24"/>
		<g>
			<line class="st1" x1="28" y1="32" x2="20" y2="24"/>
		</g>
		<line class="st1" x1="28" y1="24" x2="20" y2="32"/>
		<g>
			<line class="st1" x1="44" y1="24" x2="36" y2="16"/>
		</g>
		<line class="st1" x1="44" y1="16" x2="36" y2="24"/>
		<g>
			<line class="st1" x1="60" y1="32" x2="52" y2="24"/>
		</g>
		<line class="st1" x1="60" y1="24" x2="52" y2="32"/>
		<g>
			<line class="st1" x1="12" y1="40" x2="4" y2="32"/>
		</g>
		<line class="st1" x1="12" y1="32" x2="4" y2="40"/>
		<g>
			<line class="st1" x1="28" y1="48" x2="20" y2="40"/>
		</g>
		<line class="st1" x1="28" y1="40" x2="20" y2="48"/>
		<g>
			<line class="st1" x1="44" y1="40" x2="36" y2="32"/>
		</g>
		<line class="st1" x1="44" y1="32" x2="36" y2="40"/>
		<g>
			<line class="st1" x1="60" y1="48" x2="52" y2="40"/>
		</g>
		<line class="st1" x1="60" y1="40" x2="52" y2="48"/>
		<g>
			<line class="st1" x1="12" y1="56" x2="4" y2="48"/>
		</g>
		<line class="st1" x1="12" y1="48" x2="4" y2="56"/>
		<g>
			<line class="st1" x1="28" y1="64" x2="20" y2="56"/>
		</g>
		<line class="st1" x1="28" y1="56" x2="20" y2="64"/>
		<g>
			<line class="st1" x1="44" y1="56" x2="36" y2="48"/>
		</g>
		<line class="st1" x1="44" y1="48" x2="36" y2="56"/>
		<g>
			<line class="st1" x1="60" y1="64" x2="52" y2="56"/>
		</g>
		<line class="st1" x1="60" y1="56" x2="52" y2="64"/>
	</g>
</g>
</svg>
