<?xml version="1.0" encoding="utf-8"?>
<!-- Generator: Adobe Illustrator 23.0.4, SVG Export Plug-In . SVG Version: 6.00 Build 0)  -->
<svg version="1.1" id="Layer_1" xmlns="http://www.w3.org/2000/svg" xmlns:xlink="http://www.w3.org/1999/xlink" x="0px" y="0px"
	 viewBox="0 0 64 64" style="enable-background:new 0 0 64 64;" xml:space="preserve">
<style type="text/css">
	.st0{fill:none;stroke:#010101;stroke-width:2;stroke-miterlimit:10;}
</style>
<line class="st0" x1="7" y1="0" x2="7" y2="10"/>
<line class="st0" x1="2" y1="5" x2="12" y2="5"/>
<line class="st0" x1="23" y1="8" x2="23" y2="18"/>
<line class="st0" x1="18" y1="13" x2="28" y2="13"/>
<line class="st0" x1="39" y1="0" x2="39" y2="10"/>
<line class="st0" x1="34" y1="5" x2="44" y2="5"/>
<line class="st0" x1="55" y1="8" x2="55" y2="18"/>
<line class="st0" x1="50" y1="13" x2="60" y2="13"/>
<line class="st0" x1="7" y1="16" x2="7" y2="26"/>
<line class="st0" x1="2" y1="21" x2="12" y2="21"/>
<line class="st0" x1="23" y1="24" x2="23" y2="34"/>
<line class="st0" x1="18" y1="29" x2="28" y2="29"/>
<line class="st0" x1="39" y1="16" x2="39" y2="26"/>
<line class="st0" x1="34" y1="21" x2="44" y2="21"/>
<line class="st0" x1="55" y1="24" x2="55" y2="34"/>
<line class="st0" x1="50" y1="29" x2="60" y2="29"/>
<line class="st0" x1="7" y1="32" x2="7" y2="42"/>
<line class="st0" x1="2" y1="37" x2="12" y2="37"/>
<line class="st0" x1="23" y1="40" x2="23" y2="50"/>
<line class="st0" x1="18" y1="45" x2="28" y2="45"/>
<line class="st0" x1="39" y1="32" x2="39" y2="42"/>
<line class="st0" x1="34" y1="37" x2="44" y2="37"/>
<line class="st0" x1="55" y1="40" x2="55" y2="50"/>
<line class="st0" x1="50" y1="45" x2="60" y2="45"/>
<line class="st0" x1="7" y1="48" x2="7" y2="58"/>
<line class="st0" x1="2" y1="53" x2="12" y2="53"/>
<line class="st0" x1="23" y1="56" x2="23" y2="64"/>
<line class="st0" x1="18" y1="61" x2="28" y2="61"/>
<line class="st0" x1="39" y1="48" x2="39" y2="58"/>
<line class="st0" x1="34" y1="53" x2="44" y2="53"/>
<line class="st0" x1="55" y1="56" x2="55" y2="64"/>
<line class="st0" x1="50" y1="61" x2="60" y2="61"/>
</svg>
