<?xml version="1.0" encoding="utf-8"?>
<!-- Generator: Adobe Illustrator 23.0.4, SVG Export Plug-In . SVG Version: 6.00 Build 0)  -->
<svg version="1.1" id="Layer_1" xmlns="http://www.w3.org/2000/svg" xmlns:xlink="http://www.w3.org/1999/xlink" x="0px" y="0px"
	 viewBox="0 0 64 64" style="enable-background:new 0 0 64 64;" xml:space="preserve">
<style type="text/css">
	.st0{fill:none;stroke:#010101;stroke-width:2;stroke-miterlimit:10;}
</style>
<polyline class="st0" points="0,1 2,1 3,2 3,6 2,7 0,7 "/>
<line class="st0" x1="15" y1="0" x2="15" y2="2"/>
<polygon class="st0" points="13,5 23,5 23,9 17,9 17,11 15,11 15,13 11,13 11,7 13,7 "/>
<polygon class="st0" points="29,2 29,6 30,7 34,7 35,6 35,2 34,1 30,1 "/>
<line class="st0" x1="47" y1="0" x2="47" y2="2"/>
<polyline class="st0" points="64,1 62,1 61,2 61,6 62,7 64,7 "/>
<polygon class="st0" points="55,5 45,5 45,7 43,7 43,13 47,13 47,11 49,11 49,9 55,9 "/>
<line class="st0" x1="57" y1="16" x2="57" y2="18"/>
<line class="st0" x1="51" y1="14" x2="51" y2="16"/>
<line class="st0" x1="35" y1="12" x2="35" y2="14"/>
<line class="st0" x1="25" y1="16" x2="25" y2="18"/>
<line class="st0" x1="19" y1="14" x2="19" y2="16"/>
<line class="st0" x1="3" y1="12" x2="3" y2="14"/>
<polygon class="st0" points="4,19 8,19 9,20 9,21 5,25 3,25 3,20 "/>
<polygon class="st0" points="19,23 27,23 27,25 31,25 31,27 29,29 27,29 27,31 19,31 19,29 17,29 17,25 19,25 "/>
<polygon class="st0" points="36,19 40,19 41,20 41,21 37,25 35,25 35,20 "/>
<polygon class="st0" points="51,23 59,23 59,25 63,25 63,27 61,29 59,29 59,31 51,31 51,29 49,29 49,25 51,25 "/>
<line class="st0" x1="11" y1="26" x2="11" y2="28"/>
<line class="st0" x1="43" y1="26" x2="43" y2="28"/>
<polyline class="st0" points="0,33 2,33 3,34 3,38 2,39 0,39 "/>
<line class="st0" x1="15" y1="32" x2="15" y2="34"/>
<polygon class="st0" points="13,37 23,37 23,41 17,41 17,43 15,43 15,45 11,45 11,39 13,39 "/>
<polygon class="st0" points="29,34 29,38 30,39 34,39 35,38 35,34 34,33 30,33 "/>
<line class="st0" x1="47" y1="32" x2="47" y2="34"/>
<polyline class="st0" points="64,33 62,33 61,34 61,38 62,39 64,39 "/>
<polygon class="st0" points="55,37 45,37 45,39 43,39 43,45 47,45 47,43 49,43 49,41 55,41 "/>
<line class="st0" x1="57" y1="48" x2="57" y2="50"/>
<line class="st0" x1="51" y1="46" x2="51" y2="48"/>
<line class="st0" x1="35" y1="44" x2="35" y2="46"/>
<line class="st0" x1="25" y1="48" x2="25" y2="50"/>
<line class="st0" x1="19" y1="46" x2="19" y2="48"/>
<line class="st0" x1="3" y1="44" x2="3" y2="46"/>
<polygon class="st0" points="4,51 8,51 9,52 9,53 5,57 3,57 3,52 "/>
<polygon class="st0" points="19,55 27,55 27,57 31,57 31,59 29,61 27,61 27,63 19,63 19,61 17,61 17,57 19,57 "/>
<polygon class="st0" points="36,51 40,51 41,52 41,53 37,57 35,57 35,52 "/>
<polygon class="st0" points="51,55 59,55 59,57 63,57 63,59 61,61 59,61 59,63 51,63 51,61 49,61 49,57 51,57 "/>
<line class="st0" x1="11" y1="58" x2="11" y2="60"/>
<line class="st0" x1="43" y1="58" x2="43" y2="60"/>
</svg>
