<?xml version="1.0" encoding="utf-8"?>
<!-- Generator: Adobe Illustrator 23.0.4, SVG Export Plug-In . SVG Version: 6.00 Build 0)  -->
<svg version="1.1" id="Layer_1" xmlns="http://www.w3.org/2000/svg" xmlns:xlink="http://www.w3.org/1999/xlink" x="0px" y="0px"
	 viewBox="0 0 64 64" style="enable-background:new 0 0 64 64;" xml:space="preserve">
<style type="text/css">
	.st0{clip-path:url(#SVGID_2_);}
	.st1{fill:none;stroke:#010101;stroke-width:2;stroke-miterlimit:10;}
</style>
<g>
	<defs>
		<rect id="SVGID_1_" width="64" height="64"/>
	</defs>
	<clipPath id="SVGID_2_">
		<use xlink:href="#SVGID_1_"  style="overflow:visible;"/>
	</clipPath>
	<g class="st0">
		<line class="st1" x1="0" y1="9" x2="64" y2="9"/>
		<line class="st1" x1="0" y1="21" x2="64" y2="21"/>
		<line class="st1" x1="0" y1="31" x2="64" y2="31"/>
		<line class="st1" x1="0" y1="41" x2="64" y2="41"/>
		<line class="st1" x1="0" y1="53" x2="64" y2="53"/>
		<line class="st1" x1="0" y1="63" x2="64" y2="63"/>
		<line class="st1" x1="9" y1="21" x2="21" y2="9"/>
		<line class="st1" x1="41" y1="21" x2="53" y2="9"/>
		<line class="st1" x1="21" y1="31" x2="31" y2="21"/>
		<line class="st1" x1="53" y1="31" x2="63" y2="21"/>
		<line class="st1" x1="1" y1="41" x2="11" y2="31"/>
		<line class="st1" x1="33" y1="41" x2="43" y2="31"/>
		<line class="st1" x1="9" y1="53" x2="21" y2="41"/>
		<line class="st1" x1="41" y1="53" x2="53" y2="41"/>
		<line class="st1" x1="21" y1="63" x2="31" y2="53"/>
		<line class="st1" x1="53" y1="63" x2="63" y2="53"/>
		<line class="st1" x1="1" y1="9" x2="11" y2="-1"/>
		<line class="st1" x1="33" y1="9" x2="43" y2="-1"/>
	</g>
</g>
</svg>
