<?xml version="1.0" encoding="utf-8"?>
<!-- Generator: Adobe Illustrator 23.0.4, SVG Export Plug-In . SVG Version: 6.00 Build 0)  -->
<svg version="1.1" id="Layer_1" xmlns="http://www.w3.org/2000/svg" xmlns:xlink="http://www.w3.org/1999/xlink" x="0px" y="0px"
	 viewBox="0 0 64 64" style="enable-background:new 0 0 64 64;" xml:space="preserve">
<style type="text/css">
	.st0{fill:none;stroke:#010101;stroke-width:2;stroke-miterlimit:10;}
</style>
<line class="st0" x1="0" y1="1" x2="64" y2="1"/>
<line class="st0" x1="0" y1="5" x2="64" y2="5"/>
<line class="st0" x1="0" y1="7" x2="64" y2="7"/>
<line class="st0" x1="0" y1="9" x2="64" y2="9"/>
<line class="st0" x1="0" y1="13" x2="64" y2="13"/>
<line class="st0" x1="0" y1="15" x2="64" y2="15"/>
<line class="st0" x1="0" y1="19" x2="64" y2="19"/>
<line class="st0" x1="0" y1="21" x2="64" y2="21"/>
<line class="st0" x1="0" y1="23" x2="64" y2="23"/>
<line class="st0" x1="0" y1="27" x2="64" y2="27"/>
<line class="st0" x1="0" y1="29" x2="64" y2="29"/>
<line class="st0" x1="0" y1="35" x2="64" y2="35"/>
<line class="st0" x1="0" y1="37" x2="64" y2="37"/>
<line class="st0" x1="0" y1="41" x2="64" y2="41"/>
<line class="st0" x1="0" y1="43" x2="64" y2="43"/>
<line class="st0" x1="0" y1="45" x2="64" y2="45"/>
<line class="st0" x1="0" y1="49" x2="64" y2="49"/>
<line class="st0" x1="0" y1="51" x2="64" y2="51"/>
<line class="st0" x1="0" y1="55" x2="64" y2="55"/>
<line class="st0" x1="0" y1="57" x2="64" y2="57"/>
<line class="st0" x1="0" y1="59" x2="64" y2="59"/>
<line class="st0" x1="0" y1="63" x2="64" y2="63"/>
</svg>
