<?xml version="1.0" encoding="utf-8"?>
<!-- Generator: Adobe Illustrator 23.0.4, SVG Export Plug-In . SVG Version: 6.00 Build 0)  -->
<svg version="1.1" id="Layer_1" xmlns="http://www.w3.org/2000/svg" xmlns:xlink="http://www.w3.org/1999/xlink" x="0px" y="0px"
	 viewBox="0 0 64 64" style="enable-background:new 0 0 64 64;" xml:space="preserve">
<style type="text/css">
	.st0{fill:none;stroke:#010101;stroke-width:2;stroke-miterlimit:10;}
</style>
<path class="st0" d="M63,16"/>
<line class="st0" x1="0" y1="11" x2="4" y2="11"/>
<line class="st0" x1="9" y1="2" x2="9" y2="6"/>
<line class="st0" x1="21" y1="6" x2="21" y2="8"/>
<line class="st0" x1="23" y1="4" x2="23" y2="6"/>
<line class="st0" x1="29" y1="2" x2="29" y2="4"/>
<line class="st0" x1="31" y1="4" x2="31" y2="6"/>
<line class="st0" x1="41" y1="2" x2="41" y2="6"/>
<line class="st0" x1="53" y1="6" x2="53" y2="8"/>
<line class="st0" x1="55" y1="4" x2="55" y2="6"/>
<line class="st0" x1="61" y1="2" x2="61" y2="4"/>
<line class="st0" x1="63" y1="4" x2="63" y2="6"/>
<polyline class="st0" points="9,12 9,15 7,15 7,18 "/>
<line class="st0" x1="15" y1="12" x2="15" y2="14"/>
<line class="st0" x1="17" y1="14" x2="17" y2="16"/>
<line class="st0" x1="23" y1="14" x2="23" y2="18"/>
<line class="st0" x1="32" y1="11" x2="36" y2="11"/>
<line class="st0" x1="30" y1="17" x2="32" y2="17"/>
<line class="st0" x1="29" y1="18" x2="29" y2="20"/>
<polyline class="st0" points="41,12 41,15 39,15 39,18 "/>
<line class="st0" x1="47" y1="12" x2="47" y2="14"/>
<line class="st0" x1="49" y1="14" x2="49" y2="16"/>
<line class="st0" x1="55" y1="14" x2="55" y2="18"/>
<line class="st0" x1="61" y1="18" x2="61" y2="20"/>
<line class="st0" x1="63" y1="16" x2="63" y2="18"/>
<line class="st0" x1="14" y1="23" x2="18" y2="23"/>
<line class="st0" x1="46" y1="23" x2="50" y2="23"/>
<polyline class="st0" points="26,25 29,25 29,27 32,27 "/>
<line class="st0" x1="38" y1="27" x2="40" y2="27"/>
<polyline class="st0" points="58,25 61,25 61,27 64,27 "/>
<line class="st0" x1="52" y1="29" x2="54" y2="29"/>
<line class="st0" x1="40" y1="29" x2="42" y2="29"/>
<line class="st0" x1="20" y1="29" x2="22" y2="29"/>
<line class="st0" x1="18" y1="31" x2="20" y2="31"/>
<line class="st0" x1="6" y1="27" x2="8" y2="27"/>
<line class="st0" x1="8" y1="29" x2="10" y2="29"/>
<path class="st0" d="M63,48"/>
<line class="st0" x1="0" y1="43" x2="4" y2="43"/>
<line class="st0" x1="9" y1="34" x2="9" y2="38"/>
<line class="st0" x1="21" y1="38" x2="21" y2="40"/>
<line class="st0" x1="23" y1="36" x2="23" y2="38"/>
<line class="st0" x1="29" y1="34" x2="29" y2="36"/>
<line class="st0" x1="31" y1="36" x2="31" y2="38"/>
<line class="st0" x1="41" y1="34" x2="41" y2="38"/>
<line class="st0" x1="53" y1="38" x2="53" y2="40"/>
<line class="st0" x1="55" y1="36" x2="55" y2="38"/>
<line class="st0" x1="61" y1="34" x2="61" y2="36"/>
<line class="st0" x1="63" y1="36" x2="63" y2="38"/>
<polyline class="st0" points="9,44 9,47 7,47 7,50 "/>
<line class="st0" x1="15" y1="44" x2="15" y2="46"/>
<line class="st0" x1="17" y1="46" x2="17" y2="48"/>
<line class="st0" x1="23" y1="46" x2="23" y2="50"/>
<line class="st0" x1="32" y1="43" x2="36" y2="43"/>
<line class="st0" x1="30" y1="49" x2="32" y2="49"/>
<line class="st0" x1="29" y1="50" x2="29" y2="52"/>
<polyline class="st0" points="41,44 41,47 39,47 39,50 "/>
<line class="st0" x1="47" y1="44" x2="47" y2="46"/>
<line class="st0" x1="49" y1="46" x2="49" y2="48"/>
<line class="st0" x1="55" y1="46" x2="55" y2="50"/>
<line class="st0" x1="61" y1="50" x2="61" y2="52"/>
<line class="st0" x1="63" y1="48" x2="63" y2="50"/>
<line class="st0" x1="14" y1="55" x2="18" y2="55"/>
<line class="st0" x1="46" y1="55" x2="50" y2="55"/>
<polyline class="st0" points="26,57 29,57 29,59 32,59 "/>
<line class="st0" x1="38" y1="59" x2="40" y2="59"/>
<polyline class="st0" points="58,57 61,57 61,59 64,59 "/>
<line class="st0" x1="52" y1="61" x2="54" y2="61"/>
<line class="st0" x1="40" y1="61" x2="42" y2="61"/>
<line class="st0" x1="20" y1="61" x2="22" y2="61"/>
<line class="st0" x1="18" y1="63" x2="20" y2="63"/>
<line class="st0" x1="6" y1="59" x2="8" y2="59"/>
<line class="st0" x1="8" y1="61" x2="10" y2="61"/>
<line class="st0" x1="50" y1="63" x2="52" y2="63"/>
</svg>
