<?xml version="1.0" encoding="utf-8"?>
<!-- Generator: Adobe Illustrator 23.0.4, SVG Export Plug-In . SVG Version: 6.00 Build 0)  -->
<svg version="1.1" id="Layer_1" xmlns="http://www.w3.org/2000/svg" xmlns:xlink="http://www.w3.org/1999/xlink" x="0px" y="0px"
	 viewBox="0 0 64 64" style="enable-background:new 0 0 64 64;" xml:space="preserve">
<style type="text/css">
	.st0{fill:#010101;}
	.st1{fill:none;stroke:#010101;stroke-width:2;stroke-miterlimit:10;}
</style>
<g>
	<path class="st0" d="M27.59,6L25,8.96L22.41,6H27.59 M32,4H18l7,8L32,4L32,4z"/>
</g>
<g>
	<polygon class="st0" points="14,6 14,12 20,12 	"/>
</g>
<g>
	<path class="st0" d="M59.59,6L57,8.96L54.41,6H59.59 M64,4H50l7,8L64,4L64,4z"/>
</g>
<g>
	<path class="st0" d="M5,7.04L7.59,10H2.41L5,7.04 M5,4L0,9.71V12h12L5,4L5,4z"/>
</g>
<g>
	<polygon class="st0" points="62,9.71 62,12 64,12 62,9.71 	"/>
</g>
<g>
	<path class="st0" d="M37,7.04L39.59,10h-5.18L37,7.04 M37,4l-7,8h14L37,4L37,4z"/>
</g>
<g>
	<polygon class="st0" points="46,6 46,12 52,12 	"/>
</g>
<line class="st1" x1="2" y1="15" x2="4" y2="15"/>
<line class="st1" x1="6" y1="17" x2="8" y2="17"/>
<line class="st1" x1="16" y1="15" x2="18" y2="15"/>
<line class="st1" x1="24" y1="15" x2="26" y2="15"/>
<line class="st1" x1="28" y1="17" x2="30" y2="17"/>
<line class="st1" x1="34" y1="15" x2="36" y2="15"/>
<line class="st1" x1="38" y1="17" x2="40" y2="17"/>
<line class="st1" x1="48" y1="15" x2="50" y2="15"/>
<line class="st1" x1="56" y1="15" x2="58" y2="15"/>
<line class="st1" x1="60" y1="17" x2="62" y2="17"/>
<line class="st1" x1="2" y1="1" x2="4" y2="1"/>
<line class="st1" x1="6" y1="1" x2="8" y2="1"/>
<line class="st1" x1="14" y1="1" x2="16" y2="1"/>
<line class="st1" x1="24" y1="1" x2="26" y2="1"/>
<line class="st1" x1="34" y1="1" x2="36" y2="1"/>
<line class="st1" x1="38" y1="1" x2="40" y2="1"/>
<line class="st1" x1="46" y1="1" x2="48" y2="1"/>
<line class="st1" x1="56" y1="1" x2="58" y2="1"/>
<g>
	<path class="st0" d="M19.59,20L17,22.96L14.41,20H19.59 M24,18H10l7,8L24,18L24,18z"/>
</g>
<g>
	<path class="st0" d="M51.59,20L49,22.96L46.41,20H51.59 M56,18H42l7,8L56,18L56,18z"/>
</g>
<g>
	<polygon class="st0" points="2,26 7,20 12,26 	"/>
</g>
<g>
	<polygon class="st0" points="22,26 27,20 32,26 	"/>
</g>
<g>
	<polygon class="st0" points="34,26 39,20 44,26 	"/>
</g>
<g>
	<polygon class="st0" points="54,26 59,20 64,26 	"/>
</g>
<line class="st1" x1="6" y1="29" x2="8" y2="29"/>
<line class="st1" x1="14" y1="29" x2="16" y2="29"/>
<line class="st1" x1="20" y1="29" x2="22" y2="29"/>
<line class="st1" x1="28" y1="29" x2="30" y2="29"/>
<line class="st1" x1="38" y1="29" x2="40" y2="29"/>
<line class="st1" x1="46" y1="29" x2="48" y2="29"/>
<line class="st1" x1="52" y1="29" x2="54" y2="29"/>
<line class="st1" x1="60" y1="29" x2="62" y2="29"/>
<line class="st1" x1="0" y1="31" x2="2" y2="31"/>
<line class="st1" x1="24" y1="31" x2="26" y2="31"/>
<line class="st1" x1="32" y1="31" x2="34" y2="31"/>
<line class="st1" x1="56" y1="31" x2="58" y2="31"/>
<g>
	<path class="st0" d="M27.59,38L25,40.96L22.41,38H27.59 M32,36H18l7,8L32,36L32,36z"/>
</g>
<g>
	<polygon class="st0" points="14,38 14,44 20,44 	"/>
</g>
<g>
	<path class="st0" d="M59.59,38L57,40.96L54.41,38H59.59 M64,36H50l7,8L64,36L64,36z"/>
</g>
<g>
	<path class="st0" d="M5,39.04L7.59,42H2.41L5,39.04 M5,36l-5,5.71V44h12L5,36L5,36z"/>
</g>
<g>
	<polygon class="st0" points="62,41.71 62,44 64,44 62,41.71 	"/>
</g>
<g>
	<path class="st0" d="M37,39.04L39.59,42h-5.18L37,39.04 M37,36l-7,8h14L37,36L37,36z"/>
</g>
<g>
	<polygon class="st0" points="46,38 46,44 52,44 	"/>
</g>
<line class="st1" x1="2" y1="47" x2="4" y2="47"/>
<line class="st1" x1="6" y1="49" x2="8" y2="49"/>
<line class="st1" x1="16" y1="47" x2="18" y2="47"/>
<line class="st1" x1="24" y1="47" x2="26" y2="47"/>
<line class="st1" x1="28" y1="49" x2="30" y2="49"/>
<line class="st1" x1="34" y1="47" x2="36" y2="47"/>
<line class="st1" x1="38" y1="49" x2="40" y2="49"/>
<line class="st1" x1="48" y1="47" x2="50" y2="47"/>
<line class="st1" x1="56" y1="47" x2="58" y2="47"/>
<line class="st1" x1="60" y1="49" x2="62" y2="49"/>
<line class="st1" x1="2" y1="33" x2="4" y2="33"/>
<line class="st1" x1="6" y1="33" x2="8" y2="33"/>
<line class="st1" x1="14" y1="33" x2="16" y2="33"/>
<line class="st1" x1="24" y1="33" x2="26" y2="33"/>
<line class="st1" x1="34" y1="33" x2="36" y2="33"/>
<line class="st1" x1="38" y1="33" x2="40" y2="33"/>
<line class="st1" x1="46" y1="33" x2="48" y2="33"/>
<line class="st1" x1="56" y1="33" x2="58" y2="33"/>
<g>
	<path class="st0" d="M19.59,52L17,54.96L14.41,52H19.59 M24,50H10l7,8L24,50L24,50z"/>
</g>
<g>
	<path class="st0" d="M51.59,52L49,54.96L46.41,52H51.59 M56,50H42l7,8L56,50L56,50z"/>
</g>
<g>
	<polygon class="st0" points="2,58 7,52 12,58 	"/>
</g>
<g>
	<polygon class="st0" points="22,58 27,52 32,58 	"/>
</g>
<g>
	<polygon class="st0" points="34,58 39,52 44,58 	"/>
</g>
<g>
	<polygon class="st0" points="54,58 59,52 64,58 	"/>
</g>
<line class="st1" x1="6" y1="61" x2="8" y2="61"/>
<line class="st1" x1="14" y1="61" x2="16" y2="61"/>
<line class="st1" x1="20" y1="61" x2="22" y2="61"/>
<line class="st1" x1="28" y1="61" x2="30" y2="61"/>
<line class="st1" x1="38" y1="61" x2="40" y2="61"/>
<line class="st1" x1="46" y1="61" x2="48" y2="61"/>
<line class="st1" x1="52" y1="61" x2="54" y2="61"/>
<line class="st1" x1="60" y1="61" x2="62" y2="61"/>
<line class="st1" x1="0" y1="63" x2="2" y2="63"/>
<line class="st1" x1="24" y1="63" x2="26" y2="63"/>
<line class="st1" x1="32" y1="63" x2="34" y2="63"/>
<line class="st1" x1="56" y1="63" x2="58" y2="63"/>
</svg>
