<?xml version="1.0" encoding="utf-8"?>
<!-- Generator: Adobe Illustrator 23.0.4, SVG Export Plug-In . SVG Version: 6.00 Build 0)  -->
<svg version="1.1" id="Layer_1" xmlns="http://www.w3.org/2000/svg" xmlns:xlink="http://www.w3.org/1999/xlink" x="0px" y="0px"
	 viewBox="0 0 64 64" style="enable-background:new 0 0 64 64;" xml:space="preserve">
<style type="text/css">
	.st0{fill:none;stroke:#010101;stroke-width:2;stroke-miterlimit:10;}
</style>
<line class="st0" x1="0" y1="7" x2="64" y2="7"/>
<line class="st0" x1="0" y1="17" x2="64" y2="17"/>
<line class="st0" x1="2" y1="11" x2="4" y2="11"/>
<line class="st0" x1="10" y1="11" x2="12" y2="11"/>
<line class="st0" x1="16" y1="11" x2="18" y2="11"/>
<line class="st0" x1="20" y1="13" x2="22" y2="13"/>
<line class="st0" x1="24" y1="11" x2="26" y2="11"/>
<line class="st0" x1="28" y1="13" x2="30" y2="13"/>
<line class="st0" x1="34" y1="11" x2="36" y2="11"/>
<line class="st0" x1="42" y1="11" x2="44" y2="11"/>
<line class="st0" x1="48" y1="11" x2="50" y2="11"/>
<line class="st0" x1="52" y1="13" x2="54" y2="13"/>
<line class="st0" x1="56" y1="11" x2="58" y2="11"/>
<line class="st0" x1="60" y1="13" x2="62" y2="13"/>
<line class="st0" x1="2" y1="3" x2="4" y2="3"/>
<line class="st0" x1="10" y1="3" x2="12" y2="3"/>
<line class="st0" x1="16" y1="5" x2="18" y2="5"/>
<line class="st0" x1="20" y1="3" x2="22" y2="3"/>
<line class="st0" x1="26" y1="5" x2="28" y2="5"/>
<line class="st0" x1="30" y1="3" x2="32" y2="3"/>
<line class="st0" x1="34" y1="3" x2="36" y2="3"/>
<line class="st0" x1="42" y1="3" x2="44" y2="3"/>
<line class="st0" x1="48" y1="5" x2="50" y2="5"/>
<line class="st0" x1="52" y1="3" x2="54" y2="3"/>
<line class="st0" x1="58" y1="5" x2="60" y2="5"/>
<line class="st0" x1="62" y1="3" x2="64" y2="3"/>
<line class="st0" x1="2" y1="21" x2="4" y2="21"/>
<line class="st0" x1="14" y1="21" x2="16" y2="21"/>
<line class="st0" x1="24" y1="21" x2="26" y2="21"/>
<line class="st0" x1="34" y1="21" x2="36" y2="21"/>
<line class="st0" x1="46" y1="21" x2="48" y2="21"/>
<line class="st0" x1="56" y1="21" x2="58" y2="21"/>
<line class="st0" x1="60" y1="23" x2="62" y2="23"/>
<line class="st0" x1="56" y1="27" x2="58" y2="27"/>
<line class="st0" x1="48" y1="27" x2="50" y2="27"/>
<line class="st0" x1="40" y1="23" x2="42" y2="23"/>
<line class="st0" x1="38" y1="27" x2="40" y2="27"/>
<line class="st0" x1="32" y1="25" x2="34" y2="25"/>
<line class="st0" x1="28" y1="23" x2="30" y2="23"/>
<line class="st0" x1="24" y1="27" x2="26" y2="27"/>
<line class="st0" x1="16" y1="27" x2="18" y2="27"/>
<line class="st0" x1="8" y1="23" x2="10" y2="23"/>
<line class="st0" x1="6" y1="27" x2="8" y2="27"/>
<line class="st0" x1="0" y1="25" x2="2" y2="25"/>
<line class="st0" x1="0" y1="31" x2="64" y2="31"/>
<line class="st0" x1="2" y1="35" x2="4" y2="35"/>
<line class="st0" x1="10" y1="35" x2="12" y2="35"/>
<line class="st0" x1="20" y1="35" x2="22" y2="35"/>
<line class="st0" x1="30" y1="35" x2="32" y2="35"/>
<line class="st0" x1="34" y1="35" x2="36" y2="35"/>
<line class="st0" x1="42" y1="35" x2="44" y2="35"/>
<line class="st0" x1="52" y1="35" x2="54" y2="35"/>
<line class="st0" x1="62" y1="35" x2="64" y2="35"/>
<line class="st0" x1="58" y1="37" x2="60" y2="37"/>
<line class="st0" x1="48" y1="37" x2="50" y2="37"/>
<line class="st0" x1="26" y1="37" x2="28" y2="37"/>
<line class="st0" x1="16" y1="37" x2="18" y2="37"/>
<line class="st0" x1="0" y1="39" x2="64" y2="39"/>
<line class="st0" x1="0" y1="49" x2="64" y2="49"/>
<line class="st0" x1="0" y1="63" x2="64" y2="63"/>
<line class="st0" x1="2" y1="53" x2="4" y2="53"/>
<line class="st0" x1="14" y1="53" x2="16" y2="53"/>
<line class="st0" x1="24" y1="53" x2="26" y2="53"/>
<line class="st0" x1="34" y1="53" x2="36" y2="53"/>
<line class="st0" x1="46" y1="53" x2="48" y2="53"/>
<line class="st0" x1="56" y1="53" x2="58" y2="53"/>
<line class="st0" x1="60" y1="55" x2="62" y2="55"/>
<line class="st0" x1="56" y1="59" x2="58" y2="59"/>
<line class="st0" x1="48" y1="59" x2="50" y2="59"/>
<line class="st0" x1="40" y1="55" x2="42" y2="55"/>
<line class="st0" x1="38" y1="59" x2="40" y2="59"/>
<line class="st0" x1="32" y1="57" x2="34" y2="57"/>
<line class="st0" x1="28" y1="55" x2="30" y2="55"/>
<line class="st0" x1="24" y1="59" x2="26" y2="59"/>
<line class="st0" x1="16" y1="59" x2="18" y2="59"/>
<line class="st0" x1="8" y1="55" x2="10" y2="55"/>
<line class="st0" x1="6" y1="59" x2="8" y2="59"/>
<line class="st0" x1="0" y1="57" x2="2" y2="57"/>
<line class="st0" x1="2" y1="43" x2="4" y2="43"/>
<line class="st0" x1="10" y1="43" x2="12" y2="43"/>
<line class="st0" x1="16" y1="43" x2="18" y2="43"/>
<line class="st0" x1="20" y1="45" x2="22" y2="45"/>
<line class="st0" x1="24" y1="43" x2="26" y2="43"/>
<line class="st0" x1="28" y1="45" x2="30" y2="45"/>
<line class="st0" x1="34" y1="43" x2="36" y2="43"/>
<line class="st0" x1="42" y1="43" x2="44" y2="43"/>
<line class="st0" x1="48" y1="43" x2="50" y2="43"/>
<line class="st0" x1="52" y1="45" x2="54" y2="45"/>
<line class="st0" x1="56" y1="43" x2="58" y2="43"/>
<line class="st0" x1="60" y1="45" x2="62" y2="45"/>
</svg>
