<?xml version="1.0" encoding="utf-8"?>
<!-- Generator: Adobe Illustrator 23.0.4, SVG Export Plug-In . SVG Version: 6.00 Build 0)  -->
<svg version="1.1" id="Layer_1" xmlns="http://www.w3.org/2000/svg" xmlns:xlink="http://www.w3.org/1999/xlink" x="0px" y="0px"
	 viewBox="0 0 64 64" style="enable-background:new 0 0 64 64;" xml:space="preserve">
<style type="text/css">
	.st0{fill:none;stroke:#010101;stroke-width:2;stroke-miterlimit:10;}
</style>
<line class="st0" x1="0" y1="3" x2="64" y2="3"/>
<line class="st0" x1="0" y1="9" x2="64" y2="9"/>
<line class="st0" x1="0" y1="17" x2="64" y2="17"/>
<line class="st0" x1="0" y1="27" x2="64" y2="27"/>
<line class="st0" x1="0" y1="35" x2="64" y2="35"/>
<line class="st0" x1="0" y1="41" x2="64" y2="41"/>
<line class="st0" x1="0" y1="49" x2="64" y2="49"/>
<line class="st0" x1="0" y1="59" x2="64" y2="59"/>
<line class="st0" x1="17" y1="0" x2="17" y2="2"/>
<line class="st0" x1="49" y1="0" x2="49" y2="2"/>
<line class="st0" x1="11" y1="4" x2="11" y2="8"/>
<line class="st0" x1="31" y1="4" x2="31" y2="8"/>
<line class="st0" x1="43" y1="4" x2="43" y2="8"/>
<line class="st0" x1="63" y1="4" x2="63" y2="8"/>
<line class="st0" x1="53" y1="10" x2="53" y2="16"/>
<line class="st0" x1="21" y1="10" x2="21" y2="16"/>
<line class="st0" x1="7" y1="18" x2="7" y2="26"/>
<line class="st0" x1="27" y1="18" x2="27" y2="26"/>
<line class="st0" x1="39" y1="18" x2="39" y2="26"/>
<line class="st0" x1="59" y1="18" x2="59" y2="26"/>
<line class="st0" x1="17" y1="28" x2="17" y2="34"/>
<line class="st0" x1="49" y1="28" x2="49" y2="34"/>
<line class="st0" x1="11" y1="36" x2="11" y2="40"/>
<line class="st0" x1="31" y1="36" x2="31" y2="40"/>
<line class="st0" x1="43" y1="36" x2="43" y2="40"/>
<line class="st0" x1="63" y1="36" x2="63" y2="40"/>
<line class="st0" x1="53" y1="42" x2="53" y2="48"/>
<line class="st0" x1="21" y1="42" x2="21" y2="48"/>
<line class="st0" x1="7" y1="50" x2="7" y2="58"/>
<line class="st0" x1="27" y1="50" x2="27" y2="58"/>
<line class="st0" x1="39" y1="50" x2="39" y2="58"/>
<line class="st0" x1="59" y1="50" x2="59" y2="58"/>
<line class="st0" x1="49" y1="60" x2="49" y2="64"/>
<line class="st0" x1="17" y1="60" x2="17" y2="64"/>
</svg>
