<?xml version="1.0" encoding="utf-8"?>
<!-- Generator: Adobe Illustrator 23.0.4, SVG Export Plug-In . SVG Version: 6.00 Build 0)  -->
<svg version="1.1" id="Layer_1" xmlns="http://www.w3.org/2000/svg" xmlns:xlink="http://www.w3.org/1999/xlink" x="0px" y="0px"
	 viewBox="0 0 64 64" style="enable-background:new 0 0 64 64;" xml:space="preserve">
<style type="text/css">
	.st0{fill:none;stroke:#010101;stroke-width:2;stroke-miterlimit:10;}
</style>
<line class="st0" x1="1" y1="0" x2="1" y2="18"/>
<line class="st0" x1="2" y1="5" x2="4" y2="5"/>
<line class="st0" x1="3" y1="16" x2="3" y2="28"/>
<line class="st0" x1="1" y1="26" x2="1" y2="50"/>
<line class="st0" x1="3" y1="48" x2="3" y2="60"/>
<line class="st0" x1="1" y1="58" x2="1" y2="64"/>
<line class="st0" x1="2" y1="37" x2="4" y2="37"/>
<line class="st0" x1="5" y1="0" x2="5" y2="18"/>
<line class="st0" x1="6" y1="5" x2="8" y2="5"/>
<line class="st0" x1="7" y1="16" x2="7" y2="28"/>
<line class="st0" x1="5" y1="26" x2="5" y2="50"/>
<line class="st0" x1="7" y1="48" x2="7" y2="60"/>
<line class="st0" x1="5" y1="58" x2="5" y2="64"/>
<line class="st0" x1="6" y1="37" x2="8" y2="37"/>
<line class="st0" x1="9" y1="0" x2="9" y2="18"/>
<line class="st0" x1="10" y1="7" x2="12" y2="7"/>
<line class="st0" x1="11" y1="16" x2="11" y2="30"/>
<line class="st0" x1="9" y1="26" x2="9" y2="50"/>
<line class="st0" x1="11" y1="48" x2="11" y2="62"/>
<line class="st0" x1="9" y1="58" x2="9" y2="64"/>
<line class="st0" x1="10" y1="39" x2="12" y2="39"/>
<line class="st0" x1="13" y1="0" x2="13" y2="18"/>
<line class="st0" x1="14" y1="7" x2="16" y2="7"/>
<line class="st0" x1="15" y1="14" x2="15" y2="30"/>
<line class="st0" x1="13" y1="26" x2="13" y2="48"/>
<line class="st0" x1="15" y1="46" x2="15" y2="62"/>
<line class="st0" x1="13" y1="58" x2="13" y2="64"/>
<line class="st0" x1="14" y1="39" x2="16" y2="39"/>
<line class="st0" x1="17" y1="0" x2="17" y2="16"/>
<line class="st0" x1="18" y1="7" x2="20" y2="7"/>
<line class="st0" x1="19" y1="14" x2="19" y2="30"/>
<line class="st0" x1="17" y1="28" x2="17" y2="48"/>
<line class="st0" x1="19" y1="46" x2="19" y2="62"/>
<line class="st0" x1="17" y1="60" x2="17" y2="64"/>
<line class="st0" x1="18" y1="39" x2="20" y2="39"/>
<line class="st0" x1="21" y1="0" x2="21" y2="16"/>
<line class="st0" x1="22" y1="5" x2="24" y2="5"/>
<line class="st0" x1="23" y1="14" x2="23" y2="30"/>
<line class="st0" x1="21" y1="28" x2="21" y2="48"/>
<line class="st0" x1="23" y1="46" x2="23" y2="62"/>
<line class="st0" x1="21" y1="60" x2="21" y2="64"/>
<line class="st0" x1="22" y1="37" x2="24" y2="37"/>
<line class="st0" x1="25" y1="0" x2="25" y2="18"/>
<line class="st0" x1="26" y1="5" x2="28" y2="5"/>
<line class="st0" x1="27" y1="16" x2="27" y2="30"/>
<line class="st0" x1="25" y1="28" x2="25" y2="50"/>
<line class="st0" x1="27" y1="48" x2="27" y2="62"/>
<line class="st0" x1="25" y1="60" x2="25" y2="64"/>
<line class="st0" x1="26" y1="37" x2="28" y2="37"/>
<line class="st0" x1="29" y1="0" x2="29" y2="18"/>
<line class="st0" x1="30" y1="5" x2="32" y2="5"/>
<line class="st0" x1="31" y1="16" x2="31" y2="28"/>
<line class="st0" x1="29" y1="26" x2="29" y2="50"/>
<line class="st0" x1="31" y1="48" x2="31" y2="60"/>
<line class="st0" x1="29" y1="58" x2="29" y2="64"/>
<line class="st0" x1="30" y1="37" x2="32" y2="37"/>
<line class="st0" x1="33" y1="0" x2="33" y2="18"/>
<line class="st0" x1="34" y1="5" x2="36" y2="5"/>
<line class="st0" x1="35" y1="16" x2="35" y2="28"/>
<line class="st0" x1="33" y1="26" x2="33" y2="50"/>
<line class="st0" x1="35" y1="48" x2="35" y2="60"/>
<line class="st0" x1="33" y1="58" x2="33" y2="64"/>
<line class="st0" x1="34" y1="37" x2="36" y2="37"/>
<line class="st0" x1="37" y1="0" x2="37" y2="18"/>
<line class="st0" x1="38" y1="5" x2="40" y2="5"/>
<line class="st0" x1="39" y1="16" x2="39" y2="28"/>
<line class="st0" x1="37" y1="26" x2="37" y2="50"/>
<line class="st0" x1="39" y1="48" x2="39" y2="60"/>
<line class="st0" x1="37" y1="58" x2="37" y2="64"/>
<line class="st0" x1="38" y1="37" x2="40" y2="37"/>
<line class="st0" x1="49" y1="0" x2="49" y2="16"/>
<line class="st0" x1="50" y1="7" x2="52" y2="7"/>
<line class="st0" x1="51" y1="14" x2="51" y2="30"/>
<line class="st0" x1="49" y1="28" x2="49" y2="48"/>
<line class="st0" x1="51" y1="46" x2="51" y2="62"/>
<line class="st0" x1="49" y1="60" x2="49" y2="64"/>
<line class="st0" x1="50" y1="39" x2="52" y2="39"/>
<line class="st0" x1="45" y1="0" x2="45" y2="16"/>
<line class="st0" x1="46" y1="7" x2="48" y2="7"/>
<line class="st0" x1="47" y1="14" x2="47" y2="30"/>
<line class="st0" x1="45" y1="28" x2="45" y2="48"/>
<line class="st0" x1="47" y1="46" x2="47" y2="62"/>
<line class="st0" x1="45" y1="60" x2="45" y2="64"/>
<line class="st0" x1="46" y1="39" x2="48" y2="39"/>
<line class="st0" x1="41" y1="0" x2="41" y2="18"/>
<line class="st0" x1="42" y1="7" x2="44" y2="7"/>
<line class="st0" x1="43" y1="16" x2="43" y2="30"/>
<line class="st0" x1="41" y1="26" x2="41" y2="50"/>
<line class="st0" x1="43" y1="48" x2="43" y2="62"/>
<line class="st0" x1="41" y1="58" x2="41" y2="64"/>
<line class="st0" x1="42" y1="39" x2="44" y2="39"/>
<line class="st0" x1="61" y1="0" x2="61" y2="18"/>
<line class="st0" x1="62" y1="5" x2="64" y2="5"/>
<line class="st0" x1="63" y1="16" x2="63" y2="28"/>
<line class="st0" x1="61" y1="26" x2="61" y2="50"/>
<line class="st0" x1="63" y1="48" x2="63" y2="60"/>
<line class="st0" x1="61" y1="58" x2="61" y2="64"/>
<line class="st0" x1="62" y1="37" x2="64" y2="37"/>
<line class="st0" x1="53" y1="0" x2="53" y2="16"/>
<line class="st0" x1="54" y1="5" x2="56" y2="5"/>
<line class="st0" x1="55" y1="14" x2="55" y2="30"/>
<line class="st0" x1="53" y1="28" x2="53" y2="48"/>
<line class="st0" x1="55" y1="46" x2="55" y2="62"/>
<line class="st0" x1="53" y1="60" x2="53" y2="64"/>
<line class="st0" x1="54" y1="37" x2="56" y2="37"/>
<line class="st0" x1="57" y1="0" x2="57" y2="18"/>
<line class="st0" x1="58" y1="5" x2="60" y2="5"/>
<line class="st0" x1="59" y1="16" x2="59" y2="30"/>
<line class="st0" x1="57" y1="28" x2="57" y2="50"/>
<line class="st0" x1="59" y1="48" x2="59" y2="62"/>
<line class="st0" x1="57" y1="60" x2="57" y2="64"/>
<line class="st0" x1="58" y1="37" x2="60" y2="37"/>
</svg>
