<?xml version="1.0" encoding="utf-8"?>
<!-- Generator: Adobe Illustrator 23.0.4, SVG Export Plug-In . SVG Version: 6.00 Build 0)  -->
<svg version="1.1" id="Layer_1" xmlns="http://www.w3.org/2000/svg" xmlns:xlink="http://www.w3.org/1999/xlink" x="0px" y="0px"
	 viewBox="0 0 64 64" style="enable-background:new 0 0 64 64;" xml:space="preserve">
<style type="text/css">
	.st0{fill:none;stroke:#010101;stroke-width:2;stroke-miterlimit:10;}
</style>
<line class="st0" x1="4" y1="4" x2="12" y2="12"/>
<line class="st0" x1="20" y1="12" x2="28" y2="4"/>
<line class="st0" x1="36" y1="4" x2="44" y2="12"/>
<line class="st0" x1="60" y1="4" x2="52" y2="12"/>
<line class="st0" x1="52" y1="20" x2="60" y2="28"/>
<line class="st0" x1="44" y1="20" x2="36" y2="28"/>
<line class="st0" x1="20" y1="20" x2="28" y2="28"/>
<line class="st0" x1="4" y1="28" x2="12" y2="20"/>
<line class="st0" x1="4" y1="36" x2="12" y2="44"/>
<line class="st0" x1="20" y1="44" x2="28" y2="36"/>
<line class="st0" x1="36" y1="36" x2="44" y2="44"/>
<line class="st0" x1="60" y1="36" x2="52" y2="44"/>
<line class="st0" x1="52" y1="52" x2="60" y2="60"/>
<line class="st0" x1="44" y1="52" x2="36" y2="60"/>
<line class="st0" x1="20" y1="52" x2="28" y2="60"/>
<line class="st0" x1="4" y1="60" x2="12" y2="52"/>
</svg>
