<?xml version="1.0" encoding="utf-8"?>
<!-- Generator: Adobe Illustrator 23.0.4, SVG Export Plug-In . SVG Version: 6.00 Build 0)  -->
<svg version="1.1" id="Layer_1" xmlns="http://www.w3.org/2000/svg" xmlns:xlink="http://www.w3.org/1999/xlink" x="0px" y="0px"
	 viewBox="0 0 64 64" style="enable-background:new 0 0 64 64;" xml:space="preserve">
<style type="text/css">
	.st0{fill:none;stroke:#010101;stroke-width:2;stroke-miterlimit:10;}
</style>
<polyline class="st0" points="10,1 7,1 7,3 3,3 3,5 1,5 1,10 "/>
<line class="st0" x1="5" y1="10" x2="5" y2="12"/>
<line class="st0" x1="11" y1="6" x2="11" y2="8"/>
<line class="st0" x1="15" y1="2" x2="15" y2="4"/>
<polyline class="st0" points="0,23 5,23 5,21 7,21 7,17 9,17 9,13 13,13 13,11 17,11 17,9 19,9 19,7 21,7 21,2 "/>
<line class="st0" x1="23" y1="0" x2="23" y2="2"/>
<line class="st0" x1="9" y1="26" x2="9" y2="28"/>
<line class="st0" x1="13" y1="20" x2="13" y2="22"/>
<line class="st0" x1="21" y1="12" x2="21" y2="14"/>
<line class="st0" x1="27" y1="6" x2="27" y2="8"/>
<line class="st0" x1="31" y1="0" x2="31" y2="2"/>
<polyline class="st0" points="42,1 39,1 39,3 35,3 35,5 33,5 33,10 "/>
<line class="st0" x1="31" y1="10" x2="31" y2="12"/>
<polyline class="st0" points="29,12 29,17 25,17 25,19 19,19 19,21 17,21 17,27 15,27 15,29 13,29 13,31 10,31 "/>
<polyline class="st0" points="10,33 7,33 7,35 3,35 3,37 1,37 1,42 "/>
<line class="st0" x1="5" y1="42" x2="5" y2="44"/>
<line class="st0" x1="11" y1="38" x2="11" y2="40"/>
<line class="st0" x1="15" y1="34" x2="15" y2="36"/>
<line class="st0" x1="23" y1="24" x2="23" y2="26"/>
<line class="st0" x1="37" y1="10" x2="37" y2="12"/>
<line class="st0" x1="43" y1="6" x2="43" y2="8"/>
<line class="st0" x1="47" y1="2" x2="47" y2="4"/>
<line class="st0" x1="55" y1="0" x2="55" y2="2"/>
<polyline class="st0" points="53,2 53,7 51,7 51,9 49,9 49,11 45,11 45,13 41,13 41,17 39,17 39,21 37,21 37,23 32,23 "/>
<polyline class="st0" points="32,25 29,25 29,27 27,27 27,29 25,29 25,32 "/>
<line class="st0" x1="23" y1="32" x2="23" y2="34"/>
<polyline class="st0" points="21,34 21,39 19,39 19,41 17,41 17,43 13,43 13,45 9,45 9,49 7,49 7,53 5,53 5,55 0,55 "/>
<line class="st0" x1="9" y1="58" x2="9" y2="60"/>
<line class="st0" x1="13" y1="52" x2="13" y2="54"/>
<line class="st0" x1="21" y1="44" x2="21" y2="46"/>
<line class="st0" x1="27" y1="38" x2="27" y2="40"/>
<line class="st0" x1="31" y1="32" x2="31" y2="34"/>
<line class="st0" x1="41" y1="26" x2="41" y2="28"/>
<line class="st0" x1="45" y1="20" x2="45" y2="22"/>
<line class="st0" x1="53" y1="12" x2="53" y2="14"/>
<line class="st0" x1="59" y1="6" x2="59" y2="8"/>
<line class="st0" x1="63" y1="0" x2="63" y2="2"/>
<line class="st0" x1="63" y1="10" x2="63" y2="12"/>
<polyline class="st0" points="61,12 61,17 57,17 57,19 51,19 51,21 49,21 49,27 47,27 47,29 45,29 45,31 42,31 "/>
<polyline class="st0" points="42,33 39,33 39,35 35,35 35,37 33,37 33,42 "/>
<line class="st0" x1="30" y1="43" x2="32" y2="43"/>
<polyline class="st0" points="29,44 29,49 25,49 25,51 19,51 19,53 17,53 17,59 15,59 15,61 13,61 13,63 10,63 "/>
<line class="st0" x1="23" y1="56" x2="23" y2="58"/>
<line class="st0" x1="37" y1="42" x2="37" y2="44"/>
<line class="st0" x1="43" y1="38" x2="43" y2="40"/>
<line class="st0" x1="47" y1="34" x2="47" y2="36"/>
<line class="st0" x1="55" y1="24" x2="55" y2="26"/>
<polyline class="st0" points="64,25 61,25 61,27 59,27 59,29 57,29 57,32 "/>
<line class="st0" x1="55" y1="32" x2="55" y2="34"/>
<polyline class="st0" points="53,34 53,39 51,39 51,41 49,41 49,43 45,43 45,45 41,45 41,49 39,49 39,53 37,53 37,55 32,55 "/>
<polyline class="st0" points="32,57 29,57 29,59 27,59 27,61 25,61 25,64 "/>
<line class="st0" x1="41" y1="58" x2="41" y2="60"/>
<line class="st0" x1="45" y1="52" x2="45" y2="54"/>
<line class="st0" x1="53" y1="44" x2="53" y2="46"/>
<line class="st0" x1="59" y1="38" x2="59" y2="40"/>
<line class="st0" x1="63" y1="32" x2="63" y2="34"/>
<line class="st0" x1="63" y1="42" x2="63" y2="44"/>
<polyline class="st0" points="61,44 61,49 57,49 57,51 51,51 51,53 49,53 49,59 47,59 47,61 45,61 45,63 42,63 "/>
<line class="st0" x1="55" y1="56" x2="55" y2="58"/>
<polyline class="st0" points="64,57 61,57 61,59 59,59 59,61 57,61 57,64 "/>
</svg>
