<?xml version="1.0" encoding="utf-8"?>
<!-- Generator: Adobe Illustrator 23.0.4, SVG Export Plug-In . SVG Version: 6.00 Build 0)  -->
<svg version="1.1" id="Layer_1" xmlns="http://www.w3.org/2000/svg" xmlns:xlink="http://www.w3.org/1999/xlink" x="0px" y="0px"
	 viewBox="0 0 64 64" style="enable-background:new 0 0 64 64;" xml:space="preserve">
<style type="text/css">
	.st0{fill:none;stroke:#010101;stroke-width:2;stroke-miterlimit:10;}
</style>
<line class="st0" x1="0" y1="1" x2="6" y2="1"/>
<line class="st0" x1="14" y1="1" x2="24" y2="1"/>
<line class="st0" x1="30" y1="1" x2="38" y2="1"/>
<line class="st0" x1="46" y1="1" x2="56" y2="1"/>
<line class="st0" x1="62" y1="1" x2="64" y2="1"/>
<line class="st0" x1="4" y1="5" x2="16" y2="5"/>
<line class="st0" x1="22" y1="5" x2="30" y2="5"/>
<line class="st0" x1="36" y1="5" x2="48" y2="5"/>
<line class="st0" x1="54" y1="5" x2="62" y2="5"/>
<line class="st0" x1="6" y1="13" x2="18" y2="13"/>
<line class="st0" x1="24" y1="13" x2="32" y2="13"/>
<line class="st0" x1="38" y1="13" x2="50" y2="13"/>
<line class="st0" x1="56" y1="13" x2="64" y2="13"/>
<line class="st0" x1="4" y1="21" x2="16" y2="21"/>
<line class="st0" x1="22" y1="21" x2="30" y2="21"/>
<line class="st0" x1="36" y1="21" x2="48" y2="21"/>
<line class="st0" x1="54" y1="21" x2="62" y2="21"/>
<line class="st0" x1="6" y1="29" x2="18" y2="29"/>
<line class="st0" x1="24" y1="29" x2="32" y2="29"/>
<line class="st0" x1="38" y1="29" x2="50" y2="29"/>
<line class="st0" x1="56" y1="29" x2="64" y2="29"/>
<line class="st0" x1="4" y1="37" x2="16" y2="37"/>
<line class="st0" x1="22" y1="37" x2="30" y2="37"/>
<line class="st0" x1="36" y1="37" x2="48" y2="37"/>
<line class="st0" x1="54" y1="37" x2="62" y2="37"/>
<line class="st0" x1="6" y1="45" x2="18" y2="45"/>
<line class="st0" x1="24" y1="45" x2="32" y2="45"/>
<line class="st0" x1="38" y1="45" x2="50" y2="45"/>
<line class="st0" x1="56" y1="45" x2="64" y2="45"/>
<line class="st0" x1="4" y1="53" x2="16" y2="53"/>
<line class="st0" x1="22" y1="53" x2="30" y2="53"/>
<line class="st0" x1="36" y1="53" x2="48" y2="53"/>
<line class="st0" x1="54" y1="53" x2="62" y2="53"/>
<line class="st0" x1="6" y1="61" x2="18" y2="61"/>
<line class="st0" x1="24" y1="61" x2="32" y2="61"/>
<line class="st0" x1="38" y1="61" x2="50" y2="61"/>
<line class="st0" x1="56" y1="61" x2="64" y2="61"/>
<line class="st0" x1="0" y1="17" x2="6" y2="17"/>
<line class="st0" x1="14" y1="17" x2="24" y2="17"/>
<line class="st0" x1="30" y1="17" x2="38" y2="17"/>
<line class="st0" x1="46" y1="17" x2="56" y2="17"/>
<line class="st0" x1="62" y1="17" x2="64" y2="17"/>
<line class="st0" x1="0" y1="33" x2="6" y2="33"/>
<line class="st0" x1="14" y1="33" x2="24" y2="33"/>
<line class="st0" x1="30" y1="33" x2="38" y2="33"/>
<line class="st0" x1="46" y1="33" x2="56" y2="33"/>
<line class="st0" x1="62" y1="33" x2="64" y2="33"/>
<line class="st0" x1="0" y1="49" x2="6" y2="49"/>
<line class="st0" x1="14" y1="49" x2="24" y2="49"/>
<line class="st0" x1="30" y1="49" x2="38" y2="49"/>
<line class="st0" x1="46" y1="49" x2="56" y2="49"/>
<line class="st0" x1="62" y1="49" x2="64" y2="49"/>
<line class="st0" x1="0" y1="9" x2="8" y2="9"/>
<line class="st0" x1="16" y1="9" x2="24" y2="9"/>
<line class="st0" x1="30" y1="9" x2="40" y2="9"/>
<line class="st0" x1="48" y1="9" x2="56" y2="9"/>
<line class="st0" x1="62" y1="9" x2="64" y2="9"/>
<line class="st0" x1="0" y1="25" x2="8" y2="25"/>
<line class="st0" x1="16" y1="25" x2="24" y2="25"/>
<line class="st0" x1="30" y1="25" x2="40" y2="25"/>
<line class="st0" x1="48" y1="25" x2="56" y2="25"/>
<line class="st0" x1="62" y1="25" x2="64" y2="25"/>
<line class="st0" x1="0" y1="41" x2="8" y2="41"/>
<line class="st0" x1="16" y1="41" x2="24" y2="41"/>
<line class="st0" x1="30" y1="41" x2="40" y2="41"/>
<line class="st0" x1="48" y1="41" x2="56" y2="41"/>
<line class="st0" x1="62" y1="41" x2="64" y2="41"/>
<line class="st0" x1="0" y1="57" x2="8" y2="57"/>
<line class="st0" x1="16" y1="57" x2="24" y2="57"/>
<line class="st0" x1="30" y1="57" x2="40" y2="57"/>
<line class="st0" x1="48" y1="57" x2="56" y2="57"/>
<line class="st0" x1="62" y1="57" x2="64" y2="57"/>
</svg>
