<?xml version="1.0" encoding="utf-8"?>
<!-- Generator: Adobe Illustrator 23.0.4, SVG Export Plug-In . SVG Version: 6.00 Build 0)  -->
<svg version="1.1" id="Layer_1" xmlns="http://www.w3.org/2000/svg" xmlns:xlink="http://www.w3.org/1999/xlink" x="0px" y="0px"
	 viewBox="0 0 64 64" style="enable-background:new 0 0 64 64;" xml:space="preserve">
<style type="text/css">
	.st0{clip-path:url(#SVGID_2_);}
	.st1{fill:none;stroke:#010101;stroke-width:2;stroke-linecap:square;stroke-miterlimit:10;}
</style>
<g>
	<defs>
		<rect id="SVGID_1_" y="0" width="64" height="64"/>
	</defs>
	<clipPath id="SVGID_2_">
		<use xlink:href="#SVGID_1_"  style="overflow:visible;"/>
	</clipPath>
	<g class="st0">
		<line class="st1" x1="8" y1="0" x2="64" y2="56"/>
		<line class="st1" x1="24" y1="0" x2="64" y2="40"/>
		<line class="st1" x1="40" y1="0" x2="64" y2="24"/>
		<line class="st1" x1="0" y1="8" x2="56" y2="64"/>
		<line class="st1" x1="56" y1="0" x2="64" y2="8"/>
		<line class="st1" x1="0" y1="24" x2="40" y2="64"/>
		<line class="st1" x1="0" y1="40" x2="24" y2="64"/>
		<line class="st1" x1="0" y1="56" x2="8" y2="64"/>
		<line class="st1" x1="0" y1="56" x2="56" y2="0"/>
		<line class="st1" x1="8" y1="64" x2="64" y2="8"/>
		<line class="st1" x1="0" y1="40" x2="40" y2="0"/>
		<line class="st1" x1="0" y1="24" x2="24" y2="0"/>
		<line class="st1" x1="0" y1="8" x2="8" y2="0"/>
		<line class="st1" x1="24" y1="64" x2="64" y2="24"/>
		<line class="st1" x1="40" y1="64" x2="64" y2="40"/>
		<line class="st1" x1="56" y1="64" x2="64" y2="56"/>
	</g>
</g>
</svg>
