<?xml version="1.0" encoding="utf-8"?>
<!-- Generator: Adobe Illustrator 23.0.4, SVG Export Plug-In . SVG Version: 6.00 Build 0)  -->
<svg version="1.1" id="Layer_1" xmlns="http://www.w3.org/2000/svg" xmlns:xlink="http://www.w3.org/1999/xlink" x="0px" y="0px"
	 viewBox="0 0 64 64" style="enable-background:new 0 0 64 64;" xml:space="preserve">
<style type="text/css">
	.st0{fill:none;stroke:#010101;stroke-width:2;stroke-miterlimit:10;}
</style>
<line class="st0" x1="0" y1="3" x2="6" y2="3"/>
<line class="st0" x1="14" y1="3" x2="24" y2="3"/>
<line class="st0" x1="30" y1="3" x2="38" y2="3"/>
<line class="st0" x1="46" y1="3" x2="56" y2="3"/>
<line class="st0" x1="62" y1="3" x2="64" y2="3"/>
<line class="st0" x1="4" y1="7" x2="16" y2="7"/>
<line class="st0" x1="22" y1="7" x2="30" y2="7"/>
<line class="st0" x1="36" y1="7" x2="48" y2="7"/>
<line class="st0" x1="54" y1="7" x2="62" y2="7"/>
<line class="st0" x1="6" y1="15" x2="18" y2="15"/>
<line class="st0" x1="24" y1="15" x2="32" y2="15"/>
<line class="st0" x1="38" y1="15" x2="50" y2="15"/>
<line class="st0" x1="56" y1="15" x2="64" y2="15"/>
<line class="st0" x1="4" y1="23" x2="16" y2="23"/>
<line class="st0" x1="22" y1="23" x2="30" y2="23"/>
<line class="st0" x1="36" y1="23" x2="48" y2="23"/>
<line class="st0" x1="54" y1="23" x2="62" y2="23"/>
<line class="st0" x1="6" y1="31" x2="18" y2="31"/>
<line class="st0" x1="24" y1="31" x2="32" y2="31"/>
<line class="st0" x1="38" y1="31" x2="50" y2="31"/>
<line class="st0" x1="56" y1="31" x2="64" y2="31"/>
<line class="st0" x1="4" y1="39" x2="16" y2="39"/>
<line class="st0" x1="22" y1="39" x2="30" y2="39"/>
<line class="st0" x1="36" y1="39" x2="48" y2="39"/>
<line class="st0" x1="54" y1="39" x2="62" y2="39"/>
<line class="st0" x1="6" y1="47" x2="18" y2="47"/>
<line class="st0" x1="24" y1="47" x2="32" y2="47"/>
<line class="st0" x1="38" y1="47" x2="50" y2="47"/>
<line class="st0" x1="56" y1="47" x2="64" y2="47"/>
<line class="st0" x1="4" y1="55" x2="16" y2="55"/>
<line class="st0" x1="22" y1="55" x2="30" y2="55"/>
<line class="st0" x1="36" y1="55" x2="48" y2="55"/>
<line class="st0" x1="54" y1="55" x2="62" y2="55"/>
<line class="st0" x1="6" y1="63" x2="18" y2="63"/>
<line class="st0" x1="24" y1="63" x2="32" y2="63"/>
<line class="st0" x1="38" y1="63" x2="50" y2="63"/>
<line class="st0" x1="56" y1="63" x2="64" y2="63"/>
<line class="st0" x1="0" y1="19" x2="6" y2="19"/>
<line class="st0" x1="14" y1="19" x2="24" y2="19"/>
<line class="st0" x1="30" y1="19" x2="38" y2="19"/>
<line class="st0" x1="46" y1="19" x2="56" y2="19"/>
<line class="st0" x1="62" y1="19" x2="64" y2="19"/>
<line class="st0" x1="0" y1="35" x2="6" y2="35"/>
<line class="st0" x1="14" y1="35" x2="24" y2="35"/>
<line class="st0" x1="30" y1="35" x2="38" y2="35"/>
<line class="st0" x1="46" y1="35" x2="56" y2="35"/>
<line class="st0" x1="62" y1="35" x2="64" y2="35"/>
<line class="st0" x1="0" y1="51" x2="6" y2="51"/>
<line class="st0" x1="14" y1="51" x2="24" y2="51"/>
<line class="st0" x1="30" y1="51" x2="38" y2="51"/>
<line class="st0" x1="46" y1="51" x2="56" y2="51"/>
<line class="st0" x1="62" y1="51" x2="64" y2="51"/>
<line class="st0" x1="0" y1="11" x2="8" y2="11"/>
<line class="st0" x1="16" y1="11" x2="24" y2="11"/>
<line class="st0" x1="30" y1="11" x2="40" y2="11"/>
<line class="st0" x1="48" y1="11" x2="56" y2="11"/>
<line class="st0" x1="62" y1="11" x2="64" y2="11"/>
<line class="st0" x1="0" y1="27" x2="8" y2="27"/>
<line class="st0" x1="16" y1="27" x2="24" y2="27"/>
<line class="st0" x1="30" y1="27" x2="40" y2="27"/>
<line class="st0" x1="48" y1="27" x2="56" y2="27"/>
<line class="st0" x1="62" y1="27" x2="64" y2="27"/>
<line class="st0" x1="0" y1="43" x2="8" y2="43"/>
<line class="st0" x1="16" y1="43" x2="24" y2="43"/>
<line class="st0" x1="30" y1="43" x2="40" y2="43"/>
<line class="st0" x1="48" y1="43" x2="56" y2="43"/>
<line class="st0" x1="62" y1="43" x2="64" y2="43"/>
<line class="st0" x1="0" y1="59" x2="8" y2="59"/>
<line class="st0" x1="16" y1="59" x2="24" y2="59"/>
<line class="st0" x1="30" y1="59" x2="40" y2="59"/>
<line class="st0" x1="48" y1="59" x2="56" y2="59"/>
<line class="st0" x1="62" y1="59" x2="64" y2="59"/>
</svg>
