<?xml version="1.0" encoding="utf-8"?>
<!-- Generator: Adobe Illustrator 26.0.2, SVG Export Plug-In . SVG Version: 6.00 Build 0)  -->
<svg version="1.1" id="Layer_1" xmlns="http://www.w3.org/2000/svg" xmlns:xlink="http://www.w3.org/1999/xlink" x="0px" y="0px"
	 viewBox="0 0 64 64" style="enable-background:new 0 0 64 64;" xml:space="preserve">
<style type="text/css">
	.st0{fill:#EB3917;}
	.st1{fill:#A52613;}
	.st2{fill:#FFFFFF;}
</style>
<g>
	<circle class="st0" cx="32" cy="32" r="27"/>
	<path class="st1" d="M32,6c14.34,0,26,11.66,26,26S46.34,58,32,58S6,46.34,6,32S17.66,6,32,6 M32,4C16.54,4,4,16.54,4,32
		s12.54,28,28,28s28-12.54,28-28S47.46,4,32,4L32,4z"/>
</g>
<polygon class="st2" points="16,20 20,16 32.15,27.85 44,16 48,20 36,32 48,44 44,48 32,36 20,48 16,44 28,32 "/>
</svg>
