<?xml version="1.0" encoding="utf-8"?>
<!-- Generator: Adobe Illustrator 26.0.2, SVG Export Plug-In . SVG Version: 6.00 Build 0)  -->
<svg version="1.1" id="Layer_1" xmlns="http://www.w3.org/2000/svg" xmlns:xlink="http://www.w3.org/1999/xlink" x="0px" y="0px"
	 viewBox="0 0 64 64" style="enable-background:new 0 0 64 64;" xml:space="preserve">
<style type="text/css">
	.st0{fill:#3F9C35;}
	.st1{fill:#008000;}
	.st2{fill:#FFFFFF;}
</style>
<g>
	<circle class="st0" cx="32" cy="32" r="27"/>
	<path class="st1" d="M32,6c14.34,0,26,11.66,26,26S46.34,58,32,58S6,46.34,6,32S17.66,6,32,6 M32,4C16.54,4,4,16.54,4,32
		s12.54,28,28,28s28-12.54,28-28S47.46,4,32,4L32,4z"/>
</g>
<path class="st2" d="M7.9,32c0,0,8.59-3.51,20.1,8c0,0,18-30,31-30c0,0-27,29-31,46C28,56,23,41,7.9,32z"/>
</svg>
