<?xml version="1.0" encoding="UTF-8"?>
<svg version="1.1" xmlns="http://www.w3.org/2000/svg" width="1660" height="1438">
<path d="M0 0 C547.8 0 1095.6 0 1660 0 C1660 474.54 1660 949.08 1660 1438 C1112.2 1438 564.4 1438 0 1438 C0 963.46 0 488.92 0 0 Z " fill="#FEFEFE" transform="translate(0,0)"/>
<path d="M0 0 C0.65097656 0.5053125 1.30195312 1.010625 1.97265625 1.53125 C7.26492938 5.75607951 10.60285354 9.47890763 11.37890625 16.359375 C12.16427583 41.18718753 -4.73493848 61.961744 -20 80 C-20.8893479 81.06508331 -21.77866965 82.13018845 -22.66796875 83.1953125 C-35.01859573 97.89236732 -48.45174204 111.54157489 -62 125.125 C-62.58435822 125.71203705 -63.16871643 126.2990741 -63.77078247 126.90390015 C-69.49944964 132.65249242 -75.21593001 138.34252383 -81.39453125 143.61279297 C-83.54265644 145.46888289 -85.52396837 147.4631674 -87.5 149.5 C-90.74256259 152.78103368 -94.07047022 155.85459996 -97.5703125 158.85546875 C-100.94544161 161.83448142 -104.2176763 164.91943712 -107.5 168 C-111.93062522 172.15475713 -116.37595574 176.26797934 -120.98046875 180.23046875 C-123.69486236 182.60884459 -126.34570757 185.05510629 -129 187.5 C-132.9327753 191.12097893 -136.90214223 194.68959108 -140.94140625 198.19140625 C-143.4895665 200.4301125 -145.99410593 202.71410212 -148.5 205 C-152.28934126 208.45575413 -156.11083698 211.8652289 -159.98046875 215.23046875 C-164.02666383 218.77578088 -168.00683622 222.39522905 -172 226 C-173.66640851 227.50028679 -175.33307353 229.00028872 -177 230.5 C-178.24136719 231.61761719 -178.24136719 231.61761719 -179.5078125 232.7578125 C-181.14739879 234.23292618 -182.78799655 235.70691652 -184.4296875 237.1796875 C-190.44108274 242.5764992 -196.40749693 248.02039742 -202.35380554 253.48869324 C-203.88812452 254.8972915 -205.42587185 256.30203226 -206.96459961 257.70581055 C-214.47469394 264.57472856 -221.81309352 271.59740001 -229.02197266 278.78173828 C-230.75632086 280.50628514 -232.50110317 282.21982469 -234.24609375 283.93359375 C-243.28371221 292.88454092 -251.57173784 302.25114532 -257.375 313.6875 C-257.70314697 314.31906006 -258.03129395 314.95062012 -258.36938477 315.60131836 C-273.42371364 345.1759735 -259.39134525 380.90896818 -249.90473938 410.24490356 C-243.36060279 430.2593489 -235.76314142 449.85078337 -227 469 C-226.60490234 469.87382324 -226.20980469 470.74764648 -225.80273438 471.64794922 C-216.35185871 492.47158483 -205.19120788 512.31381936 -192 531 C-191.44699219 531.78358887 -190.89398437 532.56717773 -190.32421875 533.37451172 C-182.45227884 544.44720372 -174.11057471 554.92583382 -165 565 C-164.47100098 565.59071289 -163.94200195 566.18142578 -163.39697266 566.79003906 C-158.17932659 572.60941428 -152.96519186 578.34012403 -146.94921875 583.35546875 C-145.58471018 584.50668741 -144.25611628 585.70121352 -142.95703125 586.92578125 C-116.97394827 611.38833958 -83.05614126 629.80102548 -49 640 C-47.85023682 640.34683838 -47.85023682 640.34683838 -46.67724609 640.70068359 C-33.65851186 644.54743892 -20.4143853 646.99602171 -7 649 C-6.23300781 649.12004395 -5.46601562 649.24008789 -4.67578125 649.36376953 C8.00635145 651.27348924 20.76819736 651.17886211 33.5625 651.1875 C34.87708694 651.18913147 34.87708694 651.18913147 36.2182312 651.1907959 C41.8140941 651.19001005 47.40561075 651.12645948 53 651 C54.13808105 650.98018066 55.27616211 650.96036133 56.44873047 650.93994141 C62.5736987 650.64512365 65.61127621 649.59285048 70 645 C71.00778539 643.98695889 72.01825575 642.97658249 73.03125 641.96875 C73.52625 641.46472656 74.02125 640.96070313 74.53125 640.44140625 C76.721833 638.29160538 79.09682965 636.40596269 81.5 634.5 C85.47629426 631.30068278 89.26668298 627.97415055 93 624.5 C97.61001639 620.2104224 102.37783236 616.19589103 107.28515625 612.24609375 C110.10673495 609.9116941 112.80590712 607.48009402 115.5 605 C119.94727112 600.90648909 124.54717463 597.07557501 129.25 593.28125 C132.08099578 590.93281032 134.79383598 588.49090098 137.5 586 C141.94727112 581.90648909 146.54717463 578.07557501 151.25 574.28125 C154.08099578 571.93281032 156.79383598 569.49090098 159.5 567 C163.94727112 562.90648909 168.54717463 559.07557501 173.25 555.28125 C176.08099578 552.93281032 178.79383598 550.49090098 181.5 548 C185.94727112 543.90648909 190.54717463 540.07557501 195.25 536.28125 C198.08099578 533.93281032 200.79383598 531.49090098 203.5 529 C207.94727112 524.90648909 212.54717463 521.07557501 217.25 517.28125 C221.03905407 514.13805742 224.63269352 510.79841405 228.25390625 507.46484375 C230.91875166 505.07292703 233.64831825 502.80745116 236.4375 500.5625 C240.43223986 497.34056899 244.24554349 493.99344505 248 490.5 C252.61004336 486.21044887 257.37782956 482.19589328 262.28515625 478.24609375 C265.10673495 475.9116941 267.80590712 473.48009402 270.5 471 C274.94727112 466.90648909 279.54717463 463.07557501 284.25 459.28125 C287.08099578 456.93281032 289.79383598 454.49090098 292.5 452 C296.94727112 447.90648909 301.54717463 444.07557501 306.25 440.28125 C309.08099578 437.93281032 311.79383598 435.49090098 314.5 433 C318.93843361 428.91462361 323.52799356 425.09005397 328.22265625 421.3046875 C332.13722137 418.0563142 335.86067917 414.62411211 339.58984375 411.1640625 C340.38519531 410.44992187 341.18054687 409.73578125 342 409 C342.66128906 408.38898438 343.32257813 407.77796875 344.00390625 407.1484375 C346 406 346 406 348.2890625 406.046875 C351.9420961 407.33122687 355.11746723 409.19340279 358.375 411.25 C359.07326904 411.69037598 359.77153809 412.13075195 360.4909668 412.58447266 C387.88594443 430.36268774 407.21782592 457.35401472 416.75 488.4375 C416.94875732 489.06825439 417.14751465 489.69900879 417.35229492 490.34887695 C421.01691795 502.95750493 421.44450618 516.14952156 421.4375 529.1875 C421.43790283 529.96558014 421.43830566 530.74366028 421.4387207 531.5453186 C421.36704241 555.81552793 416.14434858 578.18733626 408 601 C407.68691895 601.89734863 407.37383789 602.79469727 407.05126953 603.71923828 C401.80420812 618.67155782 395.08724815 632.84218519 388 647 C387.58524414 647.83740723 387.17048828 648.67481445 386.74316406 649.53759766 C376.5731243 669.97505891 364.27980201 689.44829341 351 708 C350.4834082 708.72622559 349.96681641 709.45245117 349.43457031 710.20068359 C342.48692597 719.9583099 335.38074069 729.56579409 328 739 C327.10780585 740.15083467 326.21588637 741.30188232 325.32421875 742.453125 C319.91492673 749.41355455 314.34771218 756.20896851 308.62109375 762.91015625 C306.17696666 765.77577694 303.80304266 768.69405522 301.4375 771.625 C297.56187067 776.38807218 293.48765711 780.93364249 289.33203125 785.453125 C287.37594748 787.58941749 285.45812303 789.74780657 283.5625 791.9375 C279.29437265 796.843852 274.88126512 801.61643184 270.47363281 806.39697266 C269.01610399 807.98248197 267.56589061 809.57439533 266.1171875 811.16796875 C260.19623896 817.66018469 254.1083947 823.93832155 247.86230469 830.1184082 C244.94333573 833.01745662 242.10170746 835.92348329 239.4375 839.0625 C236.31704456 842.73735107 232.96366915 846.14972442 229.5625 849.5625 C229.03648193 850.09302979 228.51046387 850.62355957 227.96850586 851.17016602 C225.1189465 854.0092217 222.20257257 856.71705477 219.15234375 859.33984375 C214.53729061 863.33498912 210.27754247 867.64946193 206 872 C201.13868152 876.94427613 196.24678597 881.74620622 190.98730469 886.26660156 C187.43571776 889.36442309 184.04194221 892.63035044 180.625 895.875 C146.24614771 928.34556932 109.71125818 951.37771198 64.81982422 967.01757812 C62.47857965 967.83326368 60.14619043 968.66800385 57.81640625 969.515625 C24.75024279 981.16435148 -12.14323946 987.28724408 -47 990 C-48.56891418 990.13300666 -50.13775783 990.26684704 -51.70654297 990.40136719 C-79.32506371 992.72992061 -106.86396511 993.27525769 -134.5625 993.25 C-135.35841175 993.2496664 -136.1543235 993.24933281 -136.97435379 993.24898911 C-164.36379563 993.23361435 -191.56356288 992.35276247 -218.875 990.1875 C-219.99982788 990.09907837 -221.12465576 990.01065674 -222.28356934 989.91955566 C-230.19044142 989.29638811 -238.09560927 988.65383598 -246 988 C-246.92808472 987.92372375 -247.85616943 987.84744751 -248.81237793 987.76885986 C-286.53570168 984.65480324 -324.06498477 979.64952334 -361.59031677 974.75083923 C-365.30266517 974.26828067 -369.01614464 973.79490027 -372.72994995 973.32369995 C-375.12740567 973.01574722 -377.52270336 972.69401375 -379.91821289 972.37133789 C-387.83577737 971.34391934 -395.65334537 970.80906437 -403.640625 970.76171875 C-404.46330872 970.75402466 -405.28599243 970.74633057 -406.13360596 970.73840332 C-412.58502359 970.77706919 -418.34719866 971.82368422 -424.3828125 974.203125 C-425.09469727 974.47962891 -425.80658203 974.75613281 -426.54003906 975.04101562 C-427.35182617 975.35748047 -428.16361328 975.67394531 -429 976 C-431.10139322 976.78691052 -433.20297149 977.573327 -435.3046875 978.359375 C-451.54902077 984.52168836 -467.32739802 991.51562148 -483 999 C-484.0425293 999.4964502 -485.08505859 999.99290039 -486.15917969 1000.50439453 C-491.40075919 1003.0031357 -496.63522682 1005.51605547 -501.86328125 1008.04296875 C-505.74744727 1009.91961565 -509.63922043 1011.77773476 -513.54296875 1013.61328125 C-535.29292022 1023.87607386 -556.62464158 1034.9847947 -578 1046 C-578.6824176 1046.35141052 -579.36483521 1046.70282104 -580.06793213 1047.06488037 C-591.66253317 1053.03658596 -603.16539718 1059.15163461 -614.59545898 1065.43237305 C-621.51300616 1069.2217715 -628.49262523 1072.87980108 -635.5 1076.5 C-646.15461789 1082.00762541 -656.69623462 1087.69862201 -667.20800781 1093.47314453 C-670.09905621 1095.05417082 -672.99741208 1096.62095493 -675.8984375 1098.18359375 C-685.73930875 1103.48455158 -695.53836177 1108.8403378 -705.25 1114.375 C-713.75993748 1119.22405316 -722.35353481 1123.90012926 -731 1128.5 C-740.47908051 1133.54412805 -749.88138177 1138.70243986 -759.21142578 1144.01782227 C-766.89603842 1148.39165981 -774.62790346 1152.67581568 -782.375 1156.9375 C-794.59399927 1163.66198938 -806.7742888 1170.45287226 -818.93505859 1177.28222656 C-822.04350994 1179.02438553 -825.15593434 1180.75924345 -828.26953125 1182.4921875 C-839.65305972 1188.8341238 -850.95736329 1195.28791356 -862.19165039 1201.890625 C-869.62122195 1206.23952358 -877.14578639 1210.38267697 -884.72265625 1214.46801758 C-892.47909988 1218.66965539 -900.08574723 1223.10417676 -907.6875 1227.578125 C-915.2289394 1232.00230704 -922.8443207 1236.27700561 -930.5 1240.5 C-940.1082291 1245.80194139 -949.62179419 1251.23961151 -959.08203125 1256.80078125 C-966.17161488 1260.95900467 -973.31813749 1265.00351981 -980.5 1269 C-989.65583166 1274.09744846 -998.73445224 1279.31084883 -1007.77392578 1284.61157227 C-1015.44486732 1289.10551436 -1023.15157421 1293.5345941 -1030.875 1297.9375 C-1043.20048783 1304.96561901 -1055.49722356 1312.04240601 -1067.78222656 1319.14111328 C-1073.18670649 1322.26324607 -1078.59350107 1325.38136526 -1084 1328.5 C-1085.07121094 1329.11810547 -1086.14242188 1329.73621094 -1087.24609375 1330.37304688 C-1092.68646075 1333.51222374 -1098.12762955 1336.64999629 -1103.5703125 1339.78515625 C-1115.05306897 1346.40141117 -1126.51960901 1353.04390011 -1137.96142578 1359.73071289 C-1145.2931252 1364.01244941 -1152.6428655 1368.2621376 -1160 1372.5 C-1171.33960009 1379.03287055 -1182.64998913 1385.61454012 -1193.94873047 1392.21777344 C-1197.18481006 1394.10794634 -1200.4223067 1395.99567324 -1203.66015625 1397.8828125 C-1204.75247559 1398.51952881 -1205.84479492 1399.15624512 -1206.97021484 1399.81225586 C-1209.06288327 1401.03199984 -1211.15565135 1402.25157287 -1213.24853516 1403.47094727 C-1214.66271729 1404.29550415 -1214.66271729 1404.29550415 -1216.10546875 1405.13671875 C-1216.93199951 1405.61842529 -1217.75853027 1406.10013184 -1218.61010742 1406.59643555 C-1221.04038088 1407.97788954 -1221.04038088 1407.97788954 -1223.3684082 1409.67895508 C-1226.71243569 1411.35763888 -1229.30283532 1411.09151708 -1233 1411 C-1233.66411712 1353.45336204 -1234.17500592 1295.90707465 -1234.48089455 1238.35735989 C-1234.51706541 1231.55960363 -1234.55466573 1224.76185561 -1234.59301758 1217.96411133 C-1234.59680959 1217.28767565 -1234.6006016 1216.61123997 -1234.60450853 1215.91430624 C-1234.72795869 1194.01214555 -1234.94568059 1172.11216309 -1235.2126194 1150.21132058 C-1235.49435158 1127.05454978 -1235.66797095 1103.89907285 -1235.72856635 1080.74046606 C-1235.76831714 1066.87400041 -1235.8937129 1053.01378905 -1236.12957754 1039.14924978 C-1236.28316679 1029.63495537 -1236.32914487 1020.12388158 -1236.29153994 1010.6084382 C-1236.27299601 1005.11965199 -1236.30086565 999.64176307 -1236.45695877 994.15493011 C-1237.34786587 961.21588513 -1237.34786587 961.21588513 -1230.22446227 953.6573112 C-1224.25963561 948.3472539 -1217.11723523 945.1089507 -1209.71306417 942.30947583 C-1202.5056779 939.57154418 -1196.29164486 935.52078798 -1189.8125 931.375 C-1187.49645389 929.94672881 -1185.17048055 928.53589216 -1182.84375 927.125 C-1182.27827255 926.78175176 -1181.71279509 926.43850353 -1181.13018196 926.08485383 C-1174.01042362 921.77554899 -1166.78506012 917.65074996 -1159.56420898 913.51416016 C-1152.28584655 909.33793312 -1145.06327345 905.07934037 -1137.875 900.75 C-1136.86034668 900.13995117 -1135.84569336 899.52990234 -1134.80029297 898.90136719 C-1130.29908765 896.19380177 -1125.79916525 893.48417521 -1121.30517578 890.76464844 C-1105.22849847 881.04227005 -1089.02999048 871.72171531 -1072.38647461 863.00146484 C-1063.57319278 858.38333354 -1054.87234986 853.60807191 -1046.23388672 848.66821289 C-1039.56439491 844.86123794 -1032.83034296 841.19134826 -1026.0625 837.5625 C-1016.94591384 832.66435523 -1007.98111062 827.54803253 -999.06396484 822.29663086 C-991.99226045 818.13886339 -984.86000947 814.10597096 -977.6875 810.125 C-965.46254659 803.32444589 -953.43453886 796.21316149 -941.42480469 789.04101562 C-937.98848559 786.99313798 -934.54647694 784.95524062 -931.1015625 782.921875 C-908.53424719 769.59706952 -886.18707558 755.9483648 -864 742 C-863.1332666 741.45569336 -862.2665332 740.91138672 -861.37353516 740.35058594 C-858.93543869 738.81877275 -856.49863145 737.28493602 -854.0625 735.75 C-853.3912207 735.3276709 -852.71994141 734.9053418 -852.02832031 734.47021484 C-836.99651799 724.97625704 -822.16472636 715.17782268 -807.375 705.3125 C-806.45412598 704.69849335 -805.53325195 704.08448669 -804.58447266 703.45187378 C-784.4440622 690.01583564 -764.55050253 676.28392443 -745 662 C-744.23236328 661.44103027 -743.46472656 660.88206055 -742.67382812 660.30615234 C-720.80718999 644.37333281 -699.44408018 627.73118319 -679 610 C-678.48985352 609.55978516 -677.97970703 609.11957031 -677.45410156 608.66601562 C-652.42220437 586.91985256 -636.6758916 558.32358065 -625.75 527.375 C-625.43281006 526.48224365 -625.11562012 525.5894873 -624.78881836 524.66967773 C-620.35581 511.75025882 -617.47485489 498.44881637 -615.1875 485 C-615.06571381 484.29254639 -614.94392761 483.58509277 -614.81845093 482.85620117 C-609.84922987 453.71782853 -606.65503088 424.23832329 -603.44140625 394.86328125 C-602.33469912 384.77782633 -601.11833276 374.72308175 -599.625 364.6875 C-599.52083771 363.97973419 -599.41667542 363.27196838 -599.30935669 362.54275513 C-597.59655379 350.98676807 -595.39341362 339.6197238 -592.55566406 328.28466797 C-592.04294874 326.176588 -591.58324313 324.06671524 -591.1484375 321.94140625 C-586.78710473 301.02877673 -579.33351228 280.18263547 -570 261 C-569.37060698 259.66429176 -568.7417019 258.32835349 -568.11328125 256.9921875 C-557.84613525 235.49469442 -544.36472481 215.32735568 -528 198 C-526.91174193 196.73338134 -525.82831815 195.46259154 -524.75 194.1875 C-517.20309395 185.53230704 -508.87287921 177.28898569 -500 170 C-499.24759033 169.37689941 -499.24759033 169.37689941 -498.47998047 168.74121094 C-471.47835299 146.45538246 -441.69522225 129.46806391 -410.71337891 113.41113281 C-407.60664207 111.79542839 -404.51025807 110.16094984 -401.41601562 108.52148438 C-375.07218621 94.57754581 -348.45647622 81.16691614 -321.80970383 67.8142395 C-319.59889176 66.70574669 -317.3888296 65.59577283 -315.1789856 64.48535156 C-297.30424965 55.50629637 -279.34832421 46.78759668 -261.16059875 38.45811462 C-256.62282717 36.36465335 -252.10665561 34.22622023 -247.58943176 32.08886719 C-219.18868589 18.66306536 -190.08485702 6.85446572 -160.51708984 -3.73730469 C-157.6989993 -4.74904731 -154.88929052 -5.7791368 -152.08203125 -6.8203125 C-103.74516611 -24.30555877 -42.87875628 -35.66475003 0 0 Z " fill="#000000" transform="translate(1234,27)"/>
</svg>
