<?xml version="1.0" encoding="utf-8"?>
<!-- Generator: Adobe Illustrator 25.4.1, SVG Export Plug-In . SVG Version: 6.00 Build 0)  -->
<svg version="1.1" id="Layer_1" xmlns="http://www.w3.org/2000/svg" xmlns:xlink="http://www.w3.org/1999/xlink" x="0px" y="0px"
	 viewBox="0 0 64 64" style="enable-background:new 0 0 64 64;" xml:space="preserve">
<style type="text/css">
	.st0{fill:#BCBEC0;}
	.st1{fill:#FFFFFF;}
	.st2{fill:#231F20;}
</style>
<g>
	<polygon class="st0" points="9.1,62.9 9.1,1.1 40.5,1.1 54.9,16.4 54.9,62.9 	"/>
	<path class="st0" d="M40.1,2.2l13.8,14.7v45H10.2V2.2H40.1 M41,0H8v64h48V16L41,0L41,0z"/>
</g>
<polygon class="st1" points="52,60 12,60 12,4 41,4 41,16 52,16 "/>
<rect x="16" y="36" class="st0" width="32" height="4"/>
<rect x="16" y="48" class="st0" width="32" height="4"/>
<rect x="16" y="28" class="st0" width="32" height="4"/>
<rect x="16" y="20" class="st0" width="32" height="4"/>
<rect x="16" y="56" class="st0" width="32" height="4"/>
<g>
	<rect x="8" y="48" class="st2" width="48" height="16"/>
</g>
<rect x="16" y="44" class="st0" width="32" height="4"/>
<g>
	<path class="st1" d="M26.2,51.8v1.7h-2.8v7.7h-2v-7.7h-2.8v-1.7H26.2z"/>
	<path class="st1" d="M28.8,61.2h-2.3l3-4.8l-2.9-4.6H29l1.7,3l1.7-3h2.3l-2.9,4.5l3,4.8h-2.4L30.7,58L28.8,61.2z"/>
	<path class="st1" d="M42.8,51.8v1.7H40v7.7h-2v-7.7h-2.8v-1.7H42.8z"/>
</g>
</svg>
