<?xml version="1.0" encoding="utf-8"?>
<!-- Generator: Adobe Illustrator 24.0.0, SVG Export Plug-In . SVG Version: 6.00 Build 0)  -->
<svg version="1.1" id="Layer_1" xmlns="http://www.w3.org/2000/svg" xmlns:xlink="http://www.w3.org/1999/xlink" x="0px" y="0px"
	 viewBox="0 0 64 64" style="enable-background:new 0 0 64 64;" xml:space="preserve">
<style type="text/css">
	.st0{fill:url(#SVGID_1_);}
	.st1{fill:url(#SVGID_2_);}
	.st2{fill:url(#SVGID_3_);}
	.st3{fill:url(#SVGID_4_);}
	.st4{fill:url(#SVGID_5_);}
	.st5{fill:none;stroke:#000000;stroke-width:4;stroke-miterlimit:10;}
</style>
<g>
	<linearGradient id="SVGID_1_" gradientUnits="userSpaceOnUse" x1="8.6987" y1="-3.4309" x2="42.7942" y2="55.6244">
		<stop  offset="0" style="stop-color:#F1F3BA"/>
		<stop  offset="0.2848" style="stop-color:#ECDA89"/>
		<stop  offset="0.932" style="stop-color:#DF9D0D"/>
		<stop  offset="1" style="stop-color:#DE9600"/>
	</linearGradient>
	<path class="st0" d="M56,48H0V4c0,0,0-4,4-4c6.1,0,17.1,0,20,0c4,0,4,4,4,4l0,4h24l4,4V48z"/>
	<linearGradient id="SVGID_2_" gradientUnits="userSpaceOnUse" x1="8.6987" y1="-3.4309" x2="42.7942" y2="55.6244">
		<stop  offset="0" style="stop-color:#B2A88F"/>
		<stop  offset="1" style="stop-color:#31281F"/>
	</linearGradient>
	<path class="st1" d="M24,4C24,4,24,4.1,24,4l0,4l0,4h4h22.3l1.7,1.7V44H4V4.1C4,4.1,4,4,4,4H24 M24,0C21.1,0,10.1,0,4,0
		C0,0,0,4,0,4v44h56V12l-4-4H28l0-4C28,4,28,0,24,0L24,0z"/>
</g>
<g>
	<linearGradient id="SVGID_3_" gradientUnits="userSpaceOnUse" x1="11.7224" y1="1.2321" x2="43.0429" y2="55.4808">
		<stop  offset="0" style="stop-color:#F1F3BA"/>
		<stop  offset="0.2848" style="stop-color:#ECDA89"/>
		<stop  offset="0.932" style="stop-color:#DF9D0D"/>
		<stop  offset="1" style="stop-color:#DE9600"/>
	</linearGradient>
	<path class="st2" d="M56,48H0V8c0,0,48,0,52,0s4,4,4,4V48z"/>
	<linearGradient id="SVGID_4_" gradientUnits="userSpaceOnUse" x1="11.7224" y1="1.2321" x2="43.0429" y2="55.4808">
		<stop  offset="0" style="stop-color:#B2A88F"/>
		<stop  offset="1" style="stop-color:#31281F"/>
	</linearGradient>
	<path class="st3" d="M52,12C52,12,52,12.1,52,12l0,32H4V12H52 M52,8C48,8,0,8,0,8v40h56V12C56,12,56,8,52,8L52,8z"/>
</g>
<g>
	<linearGradient id="SVGID_5_" gradientUnits="userSpaceOnUse" x1="18.3965" y1="38.3528" x2="61.999" y2="38.3528">
		<stop  offset="0" style="stop-color:#96CCD0"/>
		<stop  offset="1" style="stop-color:#7788DC"/>
	</linearGradient>
	<polygon class="st4" points="26,62 26,51.6 18.4,32.6 39.9,14.7 62,36.8 62,62 	"/>
	<path d="M39.8,17.4L60,37.7L60,60H28v-8v-0.8l-0.3-0.7l-6.9-17.3L39.8,17.4 M40,12L16,32l8,20v12h40l0-28L40,12L40,12z"/>
</g>
<line class="st5" x1="61" y1="38" x2="26" y2="52"/>
<line class="st5" x1="23" y1="42" x2="46" y2="22"/>
<polyline class="st5" points="24.8,26.4 38,46 38,62 "/>
<polyline class="st5" points="41,61 48,43.2 31.2,20 "/>
<line class="st5" x1="61" y1="61" x2="48" y2="43.2"/>
</svg>
