<?xml version="1.0" encoding="utf-8"?>
<!-- Generator: Adobe Illustrator 24.0.3, SVG Export Plug-In . SVG Version: 6.00 Build 0)  -->
<svg version="1.1" id="Layer_1" xmlns="http://www.w3.org/2000/svg" xmlns:xlink="http://www.w3.org/1999/xlink" x="0px" y="0px"
	 viewBox="0 0 64 64" style="enable-background:new 0 0 64 64;" xml:space="preserve">
<style type="text/css">
	.st0{fill:url(#SVGID_1_);}
	.st1{fill:url(#SVGID_2_);}
	.st2{fill:url(#SVGID_3_);}
	.st3{fill:url(#SVGID_4_);}
	.st4{fill:url(#SVGID_5_);}
	.st5{fill:#231F20;}
</style>
<g>
	<linearGradient id="SVGID_1_" gradientUnits="userSpaceOnUse" x1="8.6987" y1="-3.4309" x2="42.7942" y2="55.6244">
		<stop  offset="0" style="stop-color:#F1F3BC"/>
		<stop  offset="0.3077" style="stop-color:#ECD58D"/>
		<stop  offset="1" style="stop-color:#DD9727"/>
	</linearGradient>
	<path class="st0" d="M56,48H0V4c0,0,0-4,4-4c6.1,0,17.1,0,20,0c4,0,4,4,4,4l0,4h24l4,4V48z"/>
	<linearGradient id="SVGID_2_" gradientUnits="userSpaceOnUse" x1="8.6987" y1="-3.4309" x2="42.7942" y2="55.6244">
		<stop  offset="0" style="stop-color:#B3A990"/>
		<stop  offset="1" style="stop-color:#31291F"/>
	</linearGradient>
	<path class="st1" d="M24,4C24,4,24,4.1,24,4l0,4l0,4h4h22.3l1.7,1.7V44H4V4.1C4,4.1,4,4,4,4H24 M24,0C21.1,0,10.1,0,4,0
		C0,0,0,4,0,4v44h56V12l-4-4H28l0-4C28,4,28,0,24,0L24,0z"/>
</g>
<g>
	<linearGradient id="SVGID_3_" gradientUnits="userSpaceOnUse" x1="11.7224" y1="1.2321" x2="43.0429" y2="55.4808">
		<stop  offset="0" style="stop-color:#F1F3BC"/>
		<stop  offset="0.3077" style="stop-color:#ECD58D"/>
		<stop  offset="1" style="stop-color:#DD9727"/>
	</linearGradient>
	<path class="st2" d="M56,48H0V8c0,0,48,0,52,0s4,4,4,4V48z"/>
	<linearGradient id="SVGID_4_" gradientUnits="userSpaceOnUse" x1="11.7224" y1="1.2321" x2="43.0429" y2="55.4808">
		<stop  offset="0" style="stop-color:#B3A990"/>
		<stop  offset="1" style="stop-color:#31291F"/>
	</linearGradient>
	<path class="st3" d="M52,12C52,12,52,12.1,52,12l0,32H4V12H52 M52,8C48,8,0,8,0,8v40h56V12C56,12,56,8,52,8L52,8z"/>
</g>
<g>
	<linearGradient id="SVGID_5_" gradientUnits="userSpaceOnUse" x1="26" y1="22" x2="62" y2="58">
		<stop  offset="0" style="stop-color:#FFFFFF"/>
		<stop  offset="1" style="stop-color:#E53D3D"/>
	</linearGradient>
	<rect x="26" y="22" class="st4" width="36" height="36"/>
	<path class="st5" d="M60,24v32H28V24H60 M64,20H24v40h40V20L64,20z"/>
</g>
<g>
	<rect x="36" y="28" class="st5" width="4" height="12"/>
</g>
<rect x="32" y="32" class="st5" width="12" height="4"/>
<g>
	<rect x="48" y="44" class="st5" width="4" height="12"/>
</g>
<rect x="44" y="48" class="st5" width="12" height="4"/>
</svg>
