<?xml version="1.0" encoding="UTF-8" standalone="no"?>
<!-- Created with Inkscape (http://www.inkscape.org/) -->

<svg
   xmlns:dc="http://purl.org/dc/elements/1.1/"
   xmlns:cc="http://creativecommons.org/ns#"
   xmlns:rdf="http://www.w3.org/1999/02/22-rdf-syntax-ns#"
   xmlns:svg="http://www.w3.org/2000/svg"
   xmlns="http://www.w3.org/2000/svg"
   xmlns:sodipodi="http://sodipodi.sourceforge.net/DTD/sodipodi-0.dtd"
   xmlns:inkscape="http://www.inkscape.org/namespaces/inkscape"
   width="16.933332mm"
   height="16.933332mm"
   viewBox="0 0 16.933332 16.933332"
   version="1.1"
   id="svg38641"
   inkscape:version="0.92.1 r15371"
   sodipodi:docname="Borehole_Left_Tool.svg">
  <defs
     id="defs38635">
    <radialGradient
       gradientUnits="userSpaceOnUse"
       fy="1612.2119"
       fx="8233.4736"
       r="46.557301"
       cy="1611.8575"
       cx="8233.4707"
       id="SVGID_324_">
      <stop
         id="stop6573"
         style="stop-color:#27AAE1"
         offset="0" />
      <stop
         id="stop6575"
         style="stop-color:#2B3990"
         offset="1" />
    </radialGradient>
  </defs>
  <sodipodi:namedview
     id="base"
     pagecolor="#ffffff"
     bordercolor="#666666"
     borderopacity="1.0"
     inkscape:pageopacity="0.0"
     inkscape:pageshadow="2"
     inkscape:zoom="1.0455696"
     inkscape:cx="37.714335"
     inkscape:cy="16.285701"
     inkscape:document-units="mm"
     inkscape:current-layer="layer1"
     showgrid="false"
     fit-margin-top="0"
     fit-margin-left="0"
     fit-margin-right="0"
     fit-margin-bottom="0"
     inkscape:window-width="460"
     inkscape:window-height="403"
     inkscape:window-x="202"
     inkscape:window-y="278"
     inkscape:window-maximized="0" />
  <metadata
     id="metadata38638">
    <rdf:RDF>
      <cc:Work
         rdf:about="">
        <dc:format>image/svg+xml</dc:format>
        <dc:type
           rdf:resource="http://purl.org/dc/dcmitype/StillImage" />
        <dc:title></dc:title>
      </cc:Work>
    </rdf:RDF>
  </metadata>
  <g
     inkscape:label="Layer 1"
     inkscape:groupmode="layer"
     id="layer1"
     transform="translate(-92.830939,-141.87857)">
    <g
       transform="matrix(0.26458333,0,0,0.26458333,-2080.9857,-281.45476)"
       id="g6582">
      <radialGradient
         gradientUnits="userSpaceOnUse"
         fy="1612.2119"
         fx="8233.4736"
         r="46.557301"
         cy="1611.8575"
         cx="8233.4707"
         id="radialGradient38628">
        <stop
           id="stop38624"
           style="stop-color:#27AAE1"
           offset="0" />
        <stop
           id="stop38626"
           style="stop-color:#2B3990"
           offset="1" />
      </radialGradient>
      <path
         inkscape:connector-curvature="0"
         style="fill:url(#SVGID_324_)"
         id="path6578"
         d="m 8248,1662 c -16.5,0 -30,-13.5 -30,-30 0,-16.5 13.5,-30 30,-30 16.5,0 30,13.5 30,30 0,16.5 -13.5,30 -30,30 z"
         class="st500" />
      <path
         style="fill:#1b75bc"
         inkscape:connector-curvature="0"
         id="path6580"
         d="m 8248,1604 c 15.4,0 28,12.6 28,28 0,15.4 -12.6,28 -28,28 -15.4,0 -28,-12.6 -28,-28 0,-15.4 12.6,-28 28,-28 m 0,-4 c -17.7,0 -32,14.3 -32,32 0,17.7 14.3,32 32,32 17.7,0 32,-14.3 32,-32 0,-17.7 -14.3,-32 -32,-32 z"
         class="st499" />
    </g>
    <polygon
       transform="matrix(0.26458333,0,0,0.26458333,-2080.9857,-281.45476)"
       style="fill:#ffffff"
       id="polygon6584"
       points="8248,1612 8248,1652 8228,1632 "
       class="st0" />
    <rect
       style="fill:#ffffff;stroke-width:0.26458332"
       id="rect6586"
       height="5.2916665"
       width="4.2333331"
       class="st0"
       transform="rotate(-90)"
       y="101.29768"
       x="-152.46191" />
  </g>
</svg>
