<?xml version="1.0" encoding="utf-8"?>
<!-- Generator: Adobe Illustrator 24.0.0, SVG Export Plug-In . SVG Version: 6.00 Build 0)  -->
<svg version="1.1" id="Layer_1" xmlns="http://www.w3.org/2000/svg" xmlns:xlink="http://www.w3.org/1999/xlink" x="0px" y="0px"
	 viewBox="0 0 64 64" style="enable-background:new 0 0 64 64;" xml:space="preserve">
<style type="text/css">
	.st0{fill:url(#SVGID_1_);}
	.st1{fill:#FFFFFF;}
</style>
<g>
	<linearGradient id="SVGID_1_" gradientUnits="userSpaceOnUse" x1="11.0018" y1="18.4016" x2="63.3437" y2="48.6212">
		<stop  offset="0" style="stop-color:#00BEFB"/>
		<stop  offset="0.5794" style="stop-color:#008DFD"/>
		<stop  offset="1" style="stop-color:#0067FE"/>
	</linearGradient>
	<path class="st0" d="M47.4,56.9c-3.2,0-5.3-0.6-6.4-1.7c-1.5-1.7-0.4-3.9,0.5-5.7c0.3-0.5,0.5-1,0.7-1.4c0.2-0.5,0.3-1.1,0.3-1.7
		c0-2.5-2-4.5-4.5-4.5s-4.5,2-4.5,4.5c0,0.6,0.1,1.1,0.3,1.7l0.1,0.2c0.2,0.4,0.4,0.8,0.6,1.2c0.9,1.8,2.1,4,0.5,5.7
		c-1.1,1.1-3.1,1.7-6.4,1.7c-5,0-11.2-1.3-11.4-1.4l-1-0.2l0.2-1c1.2-5.6,2.1-14.2,0.3-15.9c-0.2-0.2-0.3-0.2-0.6-0.2
		c-0.8,0-1.9,0.6-2.8,1.1c-0.5,0.3-1.1,0.6-1.6,0.8l-1.4,0.6v-0.2c-0.3,0.1-0.7,0.1-1.1,0.1C5.9,40.5,3,37.6,3,34
		c0-3.6,2.9-6.5,6.5-6.5c0.8,0,1.7,0.2,2.4,0.5c0.5,0.2,1.1,0.5,1.6,0.8c1,0.5,2.1,1.1,2.8,1.1c0.3,0,0.4-0.1,0.6-0.2
		c1.8-1.7,0.9-10.3-0.3-15.9l-0.2-1l1-0.2c0.3-0.1,6.4-1.4,11.4-1.4c3.2,0,5.3,0.6,6.4,1.7c1.5,1.7,0.4,3.9-0.5,5.7
		c-0.2,0.4-0.4,0.9-0.6,1.3L34,19.9c-0.2,0.5-0.3,1.1-0.3,1.7c0,2.5,2,4.5,4.5,4.5s4.5-2,4.5-4.5c0-0.6-0.1-1.1-0.3-1.7
		c-0.2-0.4-0.4-0.9-0.7-1.4c-0.9-1.8-2.1-4-0.5-5.7c1.1-1.1,3.1-1.7,6.4-1.7c5,0,11.2,1.3,11.4,1.4l0.6,0.1l0.1,0.6
		c0.5,2.4,3,14.7-0.3,17.8c-0.5,0.5-1.2,0.7-2,0.7c-1.2,0-2.5-0.7-3.7-1.3c-0.5-0.3-1-0.5-1.4-0.7c-0.5-0.2-1.1-0.3-1.7-0.3
		c-2.5,0-4.5,2-4.5,4.5s2,4.5,4.5,4.5c0.6,0,1.1-0.1,1.7-0.3l0.2-0.1c0.4-0.2,0.8-0.4,1.2-0.6c1.2-0.6,2.5-1.3,3.7-1.3
		c0.8,0,1.4,0.3,2,0.7c3.3,3.1,0.8,15.3,0.3,17.8l-0.1,0.6l-0.6,0.1C58.6,55.5,52.5,56.9,47.4,56.9C47.4,56.9,47.4,56.9,47.4,56.9z"
		/>
	<path class="st1" d="M47.4,12.1c5,0,11.2,1.4,11.2,1.4s3.1,14,0,16.8c-0.4,0.3-0.8,0.5-1.3,0.5c-1.5,0-3.3-1.3-4.8-1.9v0
		c-0.6-0.3-1.3-0.4-2.1-0.4c-3,0-5.5,2.5-5.5,5.5c0,3,2.5,5.5,5.5,5.5c0.7,0,1.4-0.1,2.1-0.4v0c1.5-0.6,3.3-1.9,4.8-1.9
		c0.5,0,0.9,0.1,1.3,0.5c3.1,2.9,0,16.8,0,16.8s-6.2,1.4-11.2,1.4c-2.5,0-4.7-0.3-5.6-1.4c-1.4-1.5,0.6-4.1,1.4-6.1h0
		c0.3-0.6,0.4-1.3,0.4-2.1c0-3-2.5-5.5-5.5-5.5c-3,0-5.5,2.5-5.5,5.5c0,0.7,0.1,1.4,0.4,2.1h0c0.8,2,2.8,4.5,1.4,6.1
		c-1,1-3.1,1.4-5.6,1.4c-5,0-11.2-1.4-11.2-1.4s3.1-14,0-16.8c-0.4-0.3-0.8-0.5-1.3-0.5c-1.5,0-3.3,1.3-4.8,1.9v0
		c-0.6,0.3-1.3,0.4-2.1,0.4C6.5,39.5,4,37,4,34c0-3,2.5-5.5,5.5-5.5c0.7,0,1.4,0.1,2.1,0.4v0c1.5,0.6,3.3,1.9,4.8,1.9
		c0.5,0,0.9-0.1,1.3-0.5c3.1-2.9,0-16.8,0-16.8s6.2-1.4,11.2-1.4c2.5,0,4.7,0.3,5.6,1.4c1.4,1.5-0.6,4.1-1.4,6.1h0
		c-0.3,0.6-0.4,1.3-0.4,2.1c0,3,2.5,5.5,5.5,5.5c3,0,5.5-2.5,5.5-5.5c0-0.7-0.1-1.4-0.4-2.1h0c-0.8-2-2.8-4.5-1.4-6.1
		C42.8,12.5,44.9,12.1,47.4,12.1 M47.4,10.1L47.4,10.1c-3.6,0-5.8,0.6-7.1,2c-2,2.2-0.6,5,0.4,6.8c0.2,0.4,0.4,0.8,0.6,1.2l0.1,0.1
		c0.2,0.4,0.3,0.9,0.3,1.3c0,1.9-1.6,3.5-3.5,3.5c-1.9,0-3.5-1.6-3.5-3.5c0-0.4,0.1-0.9,0.3-1.3l0.1-0.2c0.2-0.4,0.4-0.8,0.6-1.2
		c1-1.9,2.4-4.7,0.4-6.8c-1.3-1.4-3.5-2-7.1-2c-5.1,0-11.4,1.4-11.6,1.4l-2,0.4l0.4,2c1.5,6.6,1.8,13.6,0.6,14.9
		c-0.6,0-1.6-0.6-2.3-1c-0.5-0.3-1.1-0.6-1.7-0.8l-2.7-1.1v0.6c0,0,0,0-0.1,0C5.4,26.5,2,29.9,2,34s3.4,7.5,7.5,7.5c0,0,0,0,0.1,0
		v0.6l2.7-1.1c0.6-0.2,1.1-0.5,1.7-0.8c0.8-0.4,1.8-0.9,2.3-1c1.1,1.2,0.8,8.2-0.6,14.9l-0.4,2l2,0.4c0.3,0.1,6.5,1.4,11.6,1.4
		c3.6,0,5.8-0.6,7.1-2c2-2.2,0.6-5-0.4-6.8c-0.2-0.4-0.4-0.8-0.6-1.1l-0.1-0.2c-0.2-0.4-0.3-0.9-0.3-1.3c0-1.9,1.6-3.5,3.5-3.5
		c1.9,0,3.5,1.6,3.5,3.5c0,0.4-0.1,0.9-0.3,1.3l0,0.1c-0.2,0.4-0.4,0.8-0.6,1.2c-1,1.9-2.4,4.7-0.4,6.8c1.3,1.4,3.5,2,7.1,2
		c5.1,0,11.4-1.4,11.6-1.4l1.2-0.3l0.3-1.2c0.8-3.5,3.1-15.4-0.6-18.7c-0.7-0.7-1.6-1-2.6-1c-1.5,0-2.9,0.7-4.2,1.4
		c-0.4,0.2-0.8,0.4-1.2,0.6l-0.2,0.1c-0.4,0.2-0.9,0.3-1.3,0.3c-1.9,0-3.5-1.6-3.5-3.5s1.6-3.5,3.5-3.5c0.4,0,0.9,0.1,1.3,0.3l0.1,0
		c0.4,0.2,0.8,0.4,1.2,0.6c1.3,0.7,2.7,1.4,4.2,1.4c1,0,1.9-0.4,2.6-1c1.8-1.7,2.4-5.2,1.8-11.2c-0.4-3.9-1.2-7.4-1.2-7.6l-0.3-1.2
		l-1.2-0.3C58.8,11.5,52.6,10.1,47.4,10.1L47.4,10.1z"/>
</g>
</svg>
