<?xml version="1.0" encoding="UTF-8" standalone="no"?>
<!-- Created with Inkscape (http://www.inkscape.org/) -->

<svg
   xmlns:dc="http://purl.org/dc/elements/1.1/"
   xmlns:cc="http://creativecommons.org/ns#"
   xmlns:rdf="http://www.w3.org/1999/02/22-rdf-syntax-ns#"
   xmlns:svg="http://www.w3.org/2000/svg"
   xmlns="http://www.w3.org/2000/svg"
   xmlns:sodipodi="http://sodipodi.sourceforge.net/DTD/sodipodi-0.dtd"
   xmlns:inkscape="http://www.inkscape.org/namespaces/inkscape"
   width="15.875mm"
   height="12.7mm"
   viewBox="0 0 15.875 12.7"
   version="1.1"
   id="svg288757"
   inkscape:version="0.92.1 r15371"
   sodipodi:docname="Coverage_Active_Icon.svg">
  <defs
     id="defs288751">
    <radialGradient
       gradientUnits="userSpaceOnUse"
       gradientTransform="matrix(0.853,0,0,0.853,1393.0148,-54.9855)"
       r="29.5193"
       cy="106.6678"
       cx="1328.2671"
       id="SVGID_3609_">
      <stop
         id="stop35572"
         style="stop-color:#CAFFCB"
         offset="0" />
      <stop
         id="stop35574"
         style="stop-color:#00AB31"
         offset="1" />
    </radialGradient>
  </defs>
  <sodipodi:namedview
     id="base"
     pagecolor="#ffffff"
     bordercolor="#666666"
     borderopacity="1.0"
     inkscape:pageopacity="0.0"
     inkscape:pageshadow="2"
     inkscape:zoom="0.91239316"
     inkscape:cx="14.285721"
     inkscape:cy="23.999987"
     inkscape:document-units="mm"
     inkscape:current-layer="layer1"
     showgrid="false"
     fit-margin-top="0"
     fit-margin-left="0"
     fit-margin-right="0"
     fit-margin-bottom="0"
     inkscape:window-width="460"
     inkscape:window-height="403"
     inkscape:window-x="225"
     inkscape:window-y="225"
     inkscape:window-maximized="0" />
  <metadata
     id="metadata288754">
    <rdf:RDF>
      <cc:Work
         rdf:about="">
        <dc:format>image/svg+xml</dc:format>
        <dc:type
           rdf:resource="http://purl.org/dc/dcmitype/StillImage" />
        <dc:title></dc:title>
      </cc:Work>
    </rdf:RDF>
  </metadata>
  <g
     inkscape:label="Layer 1"
     inkscape:groupmode="layer"
     id="layer1"
     transform="translate(-97.895832,-142.48333)">
    <g
       id="g35581"
       transform="matrix(0.26458333,0,0,0.26458333,-562.50416,139.30833)">
      <radialGradient
         gradientUnits="userSpaceOnUse"
         gradientTransform="matrix(0.853,0,0,0.853,1393.0148,-54.9855)"
         r="29.5193"
         cy="106.6678"
         cx="1328.2671"
         id="radialGradient288744">
        <stop
           id="stop288740"
           style="stop-color:#CAFFCB"
           offset="0" />
        <stop
           id="stop288742"
           style="stop-color:#00AB31"
           offset="1" />
      </radialGradient>
      <polygon
         id="polygon35577"
         points="2554,39.3 2539,58 2524.8,58 2513,46.2 2498,42.4 2498,29 2512.7,18 2534,18 2534,14 2539.5,14 2546.8,17.6 2550,20.8 2550,26 2554,26 "
         class="st3799"
         style="fill:url(#SVGID_3609_)" />
      <path
         id="path35579"
         d="m 2539.1,16 6.6,3.3 2.4,2.4 v 2.3 4 h 4 v 10.6 l -14,17.4 h -12.4 l -6.8,-6.8 -4,-4 -0.8,-0.8 -1.1,-0.3 -13,-3.2 V 30 l 13.3,-10 h 18.7 4 v -4 h 3.1 m 0.9,-4 h -4 -4 v 4 h -20 l -16,12 v 16 l 16,4 4,4 8,8 h 16 l 16,-20 V 24 h -4 v -4 l -4,-4 z"
         class="st599"
         inkscape:connector-curvature="0"
         style="fill:#231f20" />
    </g>
    <polyline
       id="polyline35583"
       points="2510,46 2518,38 2528,34 2540,34 2552,42  "
       class="st714"
       style="fill:none;stroke:#231f20;stroke-width:4;stroke-miterlimit:10"
       transform="matrix(0.26458333,0,0,0.26458333,-562.50416,139.30833)" />
    <line
       id="line35585"
       y2="144.60001"
       x2="107.95001"
       y1="148.83334"
       x1="107.95001"
       class="st3776"
       style="fill:none;stroke:#231f20;stroke-width:1.05833328;stroke-linejoin:round;stroke-miterlimit:10" />
  </g>
</svg>
