<?xml version="1.0" encoding="utf-8"?>
<!-- Generator: Adobe Illustrator 23.0.4, SVG Export Plug-In . SVG Version: 6.00 Build 0)  -->
<svg version="1.1" id="Layer_1" xmlns="http://www.w3.org/2000/svg" xmlns:xlink="http://www.w3.org/1999/xlink" x="0px" y="0px"
	 viewBox="0 0 64 64" style="enable-background:new 0 0 64 64;" xml:space="preserve">
<style type="text/css">
	.st0{fill:#999999;}
	.st1{fill:#FFFFFF;}
	.st2{fill:#00693C;}
</style>
<g>
	<polygon class="st0" points="1.08,62.92 1.08,1.08 31.55,1.08 46.92,16.45 46.92,62.92 	"/>
	<path class="st0" d="M31.11,2.15l14.74,14.74v44.96H2.15V2.15H31.11 M32,0H0v64h48V16L32,0L32,0z"/>
</g>
<polygon class="st1" points="44,60 4,60 4,4 32,4 32,16 44,16 "/>
<rect x="8" y="36" class="st0" width="8" height="4"/>
<rect x="8" y="28" class="st0" width="8" height="4"/>
<rect x="8" y="20" class="st0" width="8" height="4"/>
<rect x="8" y="44" class="st0" width="8" height="4"/>
<rect x="20" y="36" class="st0" width="8" height="4"/>
<rect x="20" y="28" class="st0" width="8" height="4"/>
<rect x="20" y="20" class="st0" width="8" height="4"/>
<rect x="20" y="44" class="st0" width="8" height="4"/>
<rect x="32" y="36" class="st0" width="8" height="4"/>
<rect x="32" y="28" class="st0" width="8" height="4"/>
<rect x="32" y="20" class="st0" width="8" height="4"/>
<rect x="32" y="44" class="st0" width="8" height="4"/>
<g>
	<rect y="48" class="st2" width="48" height="16"/>
</g>
<g>
	<path class="st1" d="M12.52,52.8c0.75-0.77,1.71-1.16,2.88-1.16c1.56,0,2.7,0.52,3.42,1.55c0.4,0.58,0.61,1.16,0.64,1.75H17.5
		c-0.12-0.45-0.28-0.79-0.48-1.02c-0.35-0.41-0.86-0.61-1.55-0.61c-0.7,0-1.25,0.29-1.65,0.86s-0.6,1.38-0.6,2.43
		c0,1.05,0.21,1.83,0.64,2.36c0.42,0.52,0.96,0.78,1.62,0.78c0.67,0,1.18-0.22,1.53-0.67c0.19-0.24,0.36-0.6,0.48-1.08h1.94
		c-0.17,1.02-0.6,1.85-1.28,2.49c-0.69,0.64-1.57,0.96-2.65,0.96c-1.33,0-2.38-0.43-3.14-1.29c-0.76-0.87-1.14-2.06-1.14-3.57
		C11.22,54.94,11.65,53.68,12.52,52.8z"/>
	<path class="st1" d="M22.42,58.29c0.06,0.43,0.18,0.75,0.36,0.96c0.32,0.38,0.88,0.58,1.67,0.58c0.47,0,0.85-0.05,1.15-0.15
		c0.56-0.19,0.84-0.56,0.84-1.08c0-0.31-0.14-0.55-0.41-0.72c-0.27-0.17-0.71-0.31-1.3-0.44l-1.01-0.22c-1-0.22-1.68-0.46-2.05-0.72
		c-0.63-0.43-0.95-1.11-0.95-2.03c0-0.84,0.31-1.53,0.92-2.09c0.62-0.55,1.52-0.83,2.72-0.83c1,0,1.85,0.26,2.55,0.78
		c0.71,0.52,1.07,1.28,1.11,2.28h-1.88c-0.04-0.56-0.29-0.96-0.75-1.2c-0.31-0.16-0.7-0.24-1.17-0.24c-0.52,0-0.93,0.1-1.24,0.3
		c-0.31,0.2-0.46,0.49-0.46,0.85c0,0.33,0.15,0.58,0.46,0.75c0.2,0.11,0.61,0.24,1.24,0.39l1.64,0.39c0.72,0.17,1.26,0.4,1.62,0.68
		c0.56,0.44,0.84,1.08,0.84,1.91c0,0.86-0.33,1.57-0.99,2.13c-0.66,0.57-1.59,0.85-2.8,0.85c-1.23,0-2.2-0.28-2.91-0.83
		s-1.06-1.32-1.06-2.29H22.42z"/>
	<path class="st1" d="M35.16,51.82h2.03L34,61.18h-1.85l-3.16-9.36h2.09l2.03,7.1L35.16,51.82z"/>
</g>
</svg>
