<?xml version="1.0" encoding="UTF-8" standalone="no"?>
<!-- Created with Inkscape (http://www.inkscape.org/) -->

<svg
   xmlns:dc="http://purl.org/dc/elements/1.1/"
   xmlns:cc="http://creativecommons.org/ns#"
   xmlns:rdf="http://www.w3.org/1999/02/22-rdf-syntax-ns#"
   xmlns:svg="http://www.w3.org/2000/svg"
   xmlns="http://www.w3.org/2000/svg"
   xmlns:sodipodi="http://sodipodi.sourceforge.net/DTD/sodipodi-0.dtd"
   xmlns:inkscape="http://www.inkscape.org/namespaces/inkscape"
   width="16.933332mm"
   height="16.933332mm"
   viewBox="0 0 16.933332 16.933332"
   version="1.1"
   id="svg38697"
   inkscape:version="0.92.1 r15371"
   sodipodi:docname="Borehole_Right_Tool.svg">
  <defs
     id="defs38691">
    <radialGradient
       gradientUnits="userSpaceOnUse"
       fy="1612.2119"
       fx="8297.4736"
       r="46.557301"
       cy="1611.8575"
       cx="8297.4707"
       id="SVGID_323_">
      <stop
         id="stop6562"
         style="stop-color:#27AAE1"
         offset="0" />
      <stop
         id="stop6564"
         style="stop-color:#2B3990"
         offset="1" />
    </radialGradient>
  </defs>
  <sodipodi:namedview
     id="base"
     pagecolor="#ffffff"
     bordercolor="#666666"
     borderopacity="1.0"
     inkscape:pageopacity="0.0"
     inkscape:pageshadow="2"
     inkscape:zoom="1.18"
     inkscape:cx="47.71412"
     inkscape:cy="26.285724"
     inkscape:document-units="mm"
     inkscape:current-layer="layer1"
     showgrid="false"
     inkscape:window-width="460"
     inkscape:window-height="403"
     inkscape:window-x="225"
     inkscape:window-y="225"
     inkscape:window-maximized="0"
     fit-margin-top="0"
     fit-margin-left="0"
     fit-margin-right="0"
     fit-margin-bottom="0" />
  <metadata
     id="metadata38694">
    <rdf:RDF>
      <cc:Work
         rdf:about="">
        <dc:format>image/svg+xml</dc:format>
        <dc:type
           rdf:resource="http://purl.org/dc/dcmitype/StillImage" />
        <dc:title></dc:title>
      </cc:Work>
    </rdf:RDF>
  </metadata>
  <g
     inkscape:label="Layer 1"
     inkscape:groupmode="layer"
     id="layer1"
     transform="translate(-85.271472,-133.5631)">
    <g
       transform="matrix(0.26458333,0,0,0.26458333,-2105.4785,-289.77023)"
       id="g6571">
      <radialGradient
         gradientUnits="userSpaceOnUse"
         fy="1612.2119"
         fx="8297.4736"
         r="46.557301"
         cy="1611.8575"
         cx="8297.4707"
         id="radialGradient38684">
        <stop
           id="stop38680"
           style="stop-color:#27AAE1"
           offset="0" />
        <stop
           id="stop38682"
           style="stop-color:#2B3990"
           offset="1" />
      </radialGradient>
      <path
         inkscape:connector-curvature="0"
         style="fill:url(#SVGID_323_)"
         id="path6567"
         d="m 8312,1662 c -16.5,0 -30,-13.5 -30,-30 0,-16.5 13.5,-30 30,-30 16.5,0 30,13.5 30,30 0,16.5 -13.5,30 -30,30 z"
         class="st498" />
      <path
         style="fill:#1b75bc"
         inkscape:connector-curvature="0"
         id="path6569"
         d="m 8312,1604 c 15.4,0 28,12.6 28,28 0,15.4 -12.6,28 -28,28 -15.4,0 -28,-12.6 -28,-28 0,-15.4 12.6,-28 28,-28 m 0,-4 c -17.7,0 -32,14.3 -32,32 0,17.7 14.3,32 32,32 17.7,0 32,-14.3 32,-32 0,-17.7 -14.3,-32 -32,-32 z"
         class="st499" />
    </g>
    <polygon
       transform="matrix(0.26458333,0,0,0.26458333,-2105.4785,-289.77023)"
       style="fill:#ffffff"
       id="polygon6588"
       points="8312,1652 8312,1612 8332,1632 "
       class="st0" />
    <rect
       style="fill:#ffffff;stroke-width:0.26458332"
       id="rect6590"
       height="5.2916665"
       width="4.2333331"
       class="st0"
       transform="rotate(90)"
       y="-93.738121"
       x="139.9131" />
  </g>
</svg>
