<?xml version="1.0" encoding="UTF-8" standalone="no"?>
<!-- Created with Inkscape (http://www.inkscape.org/) -->

<svg
   xmlns:dc="http://purl.org/dc/elements/1.1/"
   xmlns:cc="http://creativecommons.org/ns#"
   xmlns:rdf="http://www.w3.org/1999/02/22-rdf-syntax-ns#"
   xmlns:svg="http://www.w3.org/2000/svg"
   xmlns="http://www.w3.org/2000/svg"
   xmlns:sodipodi="http://sodipodi.sourceforge.net/DTD/sodipodi-0.dtd"
   xmlns:inkscape="http://www.inkscape.org/namespaces/inkscape"
   width="16.933332mm"
   height="14.816667mm"
   viewBox="0 0 16.933332 14.816667"
   version="1.1"
   id="svg329700"
   inkscape:version="0.92.1 r15371"
   sodipodi:docname="GIS_Stream_Data_Shapefile.svg">
  <defs
     id="defs329694">
    <linearGradient
       y2="52.138199"
       x2="1791.4164"
       y1="15.8618"
       x1="1728.5836"
       gradientUnits="userSpaceOnUse"
       id="SVGID_169_">
      <stop
         id="stop2302"
         style="stop-color:#95A167"
         offset="0" />
      <stop
         id="stop2304"
         style="stop-color:#39450C"
         offset="1" />
    </linearGradient>
  </defs>
  <sodipodi:namedview
     id="base"
     pagecolor="#ffffff"
     bordercolor="#666666"
     borderopacity="1.0"
     inkscape:pageopacity="0.0"
     inkscape:pageshadow="2"
     inkscape:zoom="1.4241379"
     inkscape:cx="29.142856"
     inkscape:cy="25.142858"
     inkscape:document-units="mm"
     inkscape:current-layer="layer1"
     showgrid="false"
     fit-margin-top="0"
     fit-margin-left="0"
     fit-margin-right="0"
     fit-margin-bottom="0"
     inkscape:window-width="460"
     inkscape:window-height="403"
     inkscape:window-x="150"
     inkscape:window-y="150"
     inkscape:window-maximized="0" />
  <metadata
     id="metadata329697">
    <rdf:RDF>
      <cc:Work
         rdf:about="">
        <dc:format>image/svg+xml</dc:format>
        <dc:type
           rdf:resource="http://purl.org/dc/dcmitype/StillImage" />
        <dc:title></dc:title>
      </cc:Work>
    </rdf:RDF>
  </metadata>
  <g
     inkscape:label="Layer 1"
     inkscape:groupmode="layer"
     id="layer1"
     transform="translate(-83.759524,-133.86548)">
    <g
       id="g2311"
       transform="matrix(0.26458333,0,0,0.26458333,-373.44047,131.74881)">
      <g
         id="g2300">
        <path
           id="path2298"
           d="m 1779.9,64 h -39.8 C 1733.4,64 1728,58.6 1728,51.9 V 24.1 c 0,-6.7 5.4,-12.1 12.1,-12.1 h 39.8 c 6.7,0 12.1,5.4 12.1,12.1 v 27.8 c 0,6.7 -5.4,12.1 -12.1,12.1 z"
           class="st2"
           inkscape:connector-curvature="0"
           style="fill:#bcbec0" />
      </g>
      <g
         id="g2309">
        <linearGradient
           y2="52.138199"
           x2="1791.4164"
           y1="15.8618"
           x1="1728.5836"
           gradientUnits="userSpaceOnUse"
           id="linearGradient329682">
          <stop
             id="stop329678"
             style="stop-color:#95A167"
             offset="0" />
          <stop
             id="stop329680"
             style="stop-color:#39450C"
             offset="1" />
        </linearGradient>
        <path
           id="path2307"
           d="m 1779.9,60 h -39.8 C 1733.4,60 1728,54.6 1728,47.9 V 20.1 c 0,-6.7 5.4,-12.1 12.1,-12.1 h 39.8 c 6.7,0 12.1,5.4 12.1,12.1 v 27.8 c 0,6.7 -5.4,12.1 -12.1,12.1 z"
           class="st215"
           inkscape:connector-curvature="0"
           style="fill:url(#SVGID_169_)" />
      </g>
    </g>
    <path
       id="path2313"
       d="m 96.882863,146.56548 h -9.31334 c -1.50812,0 -2.75166,-1.24355 -2.75166,-2.75167 v -6.13833 c 0,-1.50813 1.24354,-2.75167 2.75166,-2.75167 h 9.31334 c 1.50812,0 2.75166,1.24354 2.75166,2.75167 v 6.13833 c 0,1.50812 -1.24354,2.75167 -2.75166,2.75167 z"
       class="st214"
       inkscape:connector-curvature="0"
       style="fill:#e4f3b7;stroke-width:0.26458332" />
    <rect
       id="rect2332"
       height="1.0583333"
       width="10.583333"
       class="st217"
       y="139.15715"
       x="87.992859"
       style="fill:#95a167;stroke-width:0.26458332" />
    <rect
       id="rect2334"
       height="2.1166666"
       width="1.0583333"
       class="st217"
       y="140.21548"
       x="95.401199"
       style="fill:#95a167;stroke-width:0.26458332" />
    <rect
       id="rect2336"
       height="2.1166666"
       width="1.0583333"
       class="st217"
       y="137.04048"
       x="90.109528"
       style="fill:#95a167;stroke-width:0.26458332" />
    <rect
       id="rect2338"
       height="1.0583333"
       width="10.583333"
       class="st218"
       y="139.15715"
       x="86.934525"
       style="fill:#1c2501;stroke-width:0.26458332" />
    <rect
       id="rect2340"
       height="2.1166666"
       width="1.0583333"
       class="st218"
       y="140.21548"
       x="94.342865"
       style="fill:#1c2501;stroke-width:0.26458332" />
    <rect
       id="rect2342"
       height="2.1166666"
       width="1.0583333"
       class="st218"
       y="137.04048"
       x="89.051193"
       style="fill:#1c2501;stroke-width:0.26458332" />
  </g>
</svg>
