<?xml version="1.0" encoding="utf-8"?>
<!-- Generator: Adobe Illustrator 26.3.1, SVG Export Plug-In . SVG Version: 6.00 Build 0)  -->
<svg version="1.1" id="Layer_1" xmlns="http://www.w3.org/2000/svg" xmlns:xlink="http://www.w3.org/1999/xlink" x="0px" y="0px"
	 viewBox="0 0 64 64" style="enable-background:new 0 0 64 64;" xml:space="preserve">
<style type="text/css">
	.st0{fill:url(#SVGID_1_);}
	.st1{fill:url(#SVGID_00000030446506872793906310000002599018943537880998_);}
	.st2{fill:#FFFFFF;}
	.st3{fill:url(#SVGID_00000162323055226867920740000012445754945495241856_);}
	.st4{fill:url(#SVGID_00000110430461500897597080000017098638691439581619_);}
	.st5{fill:#80CC28;}
	.st6{fill:url(#SVGID_00000108283563838498307690000016576462510047893135_);}
</style>
<g>
	<linearGradient id="SVGID_1_" gradientUnits="userSpaceOnUse" x1="10.1987" y1="-4.2969" x2="45.2942" y2="56.4904">
		<stop  offset="0" style="stop-color:#F1F3BA"/>
		<stop  offset="0.2848" style="stop-color:#ECDA89"/>
		<stop  offset="0.932" style="stop-color:#DF9D0D"/>
		<stop  offset="1" style="stop-color:#DE9600"/>
	</linearGradient>
	<path class="st0" d="M60,48H0V4c0,0,0-4,4-4c6.05,0,17.13,0,20,0c4,0,4,4,4,4l0,4h28l4,4V48z"/>
	
		<linearGradient id="SVGID_00000027591186102563053400000015894727881905393343_" gradientUnits="userSpaceOnUse" x1="10.1987" y1="-4.2969" x2="45.2942" y2="56.4904">
		<stop  offset="0" style="stop-color:#B2A88F"/>
		<stop  offset="1" style="stop-color:#31281F"/>
	</linearGradient>
	<path style="fill:url(#SVGID_00000027591186102563053400000015894727881905393343_);" d="M23.99,4C23.99,4.03,24,4.06,24,4.09L24,8
		l0,4h4h26.34L56,13.66V44H4V4.09C4,4.06,4.01,4.03,4.01,4H23.99 M24,0C21.13,0,10.05,0,4,0C0,0,0,4,0,4v44h60V12l-4-4H28l0-4
		C28,4,28,0,24,0L24,0z"/>
</g>
<rect x="4" y="8" class="st2" width="52" height="32"/>
<g>
	
		<linearGradient id="SVGID_00000145770584884429361550000010072217000814473399_" gradientUnits="userSpaceOnUse" x1="14.9545" y1="3.366" x2="45.5429" y2="56.3468">
		<stop  offset="0" style="stop-color:#F1F3BA"/>
		<stop  offset="0.2848" style="stop-color:#ECDA89"/>
		<stop  offset="0.932" style="stop-color:#DF9D0D"/>
		<stop  offset="1" style="stop-color:#DE9600"/>
	</linearGradient>
	<path style="fill:url(#SVGID_00000145770584884429361550000010072217000814473399_);" d="M60,48H0V12l20,0c0,0,4.07-4,4.08-4
		c1.14,0,6.27,0,7.39,0C45.76,8,53.96,8,56,8c4,0,4,4,4,4V48z"/>
	
		<linearGradient id="SVGID_00000035524288484741752090000013635958265799099023_" gradientUnits="userSpaceOnUse" x1="14.9545" y1="3.366" x2="45.5429" y2="56.3468">
		<stop  offset="0" style="stop-color:#B2A88F"/>
		<stop  offset="1" style="stop-color:#31281F"/>
	</linearGradient>
	<path style="fill:url(#SVGID_00000035524288484741752090000013635958265799099023_);" d="M55.99,12c0.01,0.03,0.01,0.06,0.01,0.09
		V44H4V16l16,0h1.64l1.17-1.15c0.86-0.84,2.04-2.01,2.91-2.85h5.76H55.99 M56,8c-2.04,0-10.24,0-24.53,0c-1.12,0-6.25,0-7.39,0
		C24.07,8,20,12,20,12L0,12v36h60V12C60,12,60,8,56,8L56,8z"/>
</g>
<path class="st5" d="M16,22.39c0,0,6.39-6.39,14.19-6.39C43.68,16,47.23,30.9,60,30.9c0,0-6.17,6.39-14.19,6.39
	C34.45,37.29,30.19,22.39,16,22.39z"/>
<linearGradient id="SVGID_00000164488101327467645420000015352696275443273344_" gradientUnits="userSpaceOnUse" x1="16" y1="49.3548" x2="60" y2="49.3548">
	<stop  offset="0" style="stop-color:#3CB6EC"/>
	<stop  offset="1" style="stop-color:#2F3B98"/>
</linearGradient>
<path style="fill:url(#SVGID_00000164488101327467645420000015352696275443273344_);" d="M16,45.1c0,0,6.39-6.39,14.19-6.39
	c13.48,0,17.03,14.9,29.81,14.9c0,0-6.17,6.39-14.19,6.39C34.45,60,30.19,45.1,16,45.1z"/>
</svg>
