<?xml version="1.0" encoding="utf-8"?>
<!-- Generator: Adobe Illustrator 28.0.0, SVG Export Plug-In . SVG Version: 6.00 Build 0)  -->
<svg version="1.1" id="Layer_1" xmlns="http://www.w3.org/2000/svg" xmlns:xlink="http://www.w3.org/1999/xlink" x="0px" y="0px"
	 viewBox="0 0 64 64" style="enable-background:new 0 0 64 64;" xml:space="preserve">
<style type="text/css">
	.st0{fill:#216395;}
	.st1{fill:#221F1F;}
	.st2{fill:#FFD03B;}
	.st3{fill:#CDBEA2;}
	.st4{fill:#F5969D;}
</style>
<g>
	<rect x="1" y="21" class="st0" width="42" height="42"/>
	<path class="st1" d="M2,22l40,0l0,40L2,62L2,22 M0,20l0,44l44,0l0-44L0,20L0,20z"/>
</g>
<g>
	<path class="st2" d="M16.8,40.6L56.4,1C57.9,1.1,62.8,2,63,7.6L23.4,47.2l-13.2,6.6L16.8,40.6z"/>
	<g>
		<path class="st1" d="M56.8,2.1c0.6,0.1,1.6,0.3,2.5,0.8c1.7,0.9,2.6,2.3,2.8,4.4L22.8,46.4l-10.3,5.2l5.2-10.3L56.8,2.1 M56,0
			L16,40L8,56l16-8L64,8C64,0,56,0,56,0L56,0z"/>
	</g>
</g>
<g>
	<path class="st3" d="M16.6,41c1.6,0.2,6.1,1.1,6.4,6.4l-12.7,6.4L16.6,41z"/>
	<g>
		<path class="st1" d="M17.2,42.1c1.6,0.3,4.2,1.3,4.7,4.7l-9.4,4.7L17.2,42.1 M16,40L8,56l16-8C24,40,16,40,16,40L16,40z"/>
	</g>
</g>
<g>
	<path class="st4" d="M58.8,11.8c-0.8-4.1-4-5.9-6.6-6.5L56.4,1C57.8,1.1,62.8,2,63,7.6L58.8,11.8z"/>
	<g>
		<path class="st1" d="M56.8,2.1c1.6,0.2,4.8,1.1,5.2,5.2l-2.7,2.7c-1.1-2.7-3.2-4.3-5.3-5.1L56.8,2.1 M56,0l-6,6c0,0,8,0,8,8l6-6
			C64,0,56,0,56,0L56,0z"/>
	</g>
</g>
</svg>
