<?xml version="1.0" encoding="utf-8"?>
<!-- Generator: Adobe Illustrator 23.0.4, SVG Export Plug-In . SVG Version: 6.00 Build 0)  -->
<svg version="1.1" id="Layer_1" xmlns="http://www.w3.org/2000/svg" xmlns:xlink="http://www.w3.org/1999/xlink" x="0px" y="0px"
	 viewBox="0 0 64 64" style="enable-background:new 0 0 64 64;" xml:space="preserve">
<style type="text/css">
	.st0{fill:url(#SVGID_1_);}
	.st1{fill:#FFFFFF;}
	.st2{fill:url(#SVGID_2_);}
	.st3{fill:url(#SVGID_3_);}
	.st4{fill:url(#SVGID_4_);}
	.st5{fill:url(#SVGID_5_);}
	.st6{fill:url(#SVGID_6_);}
	.st7{fill:url(#SVGID_7_);}
	.st8{fill:url(#SVGID_8_);}
</style>
<g>
	<linearGradient id="SVGID_1_" gradientUnits="userSpaceOnUse" x1="0.9828" y1="2.9506" x2="63.0172" y2="61.0494">
		<stop  offset="0" style="stop-color:#009BBB"/>
		<stop  offset="1" style="stop-color:#020086"/>
	</linearGradient>
	<rect y="4" class="st0" width="64" height="56"/>
	<rect x="4" y="8" class="st1" width="56" height="48"/>
	<linearGradient id="SVGID_2_" gradientUnits="userSpaceOnUse" x1="-11.7071" y1="14.527" x2="52.2861" y2="74.4604">
		<stop  offset="0" style="stop-color:#009BBB"/>
		<stop  offset="1" style="stop-color:#020086"/>
	</linearGradient>
	<path class="st2" d="M60.48,53.1c0-0.2-0.02-0.39-0.04-0.63c-0.14,0.05-0.22,0.07-0.28,0.1c-2.81,1.45-5.75,1.62-8.77,0.91
		c-3.41-0.81-6.35-2.54-8.93-4.83c-2.76-2.44-5.38-5.04-8.06-7.57c-1.36-1.28-2.77-2.5-4.5-3.26c-5.32-2.37-10.44-1.91-15.32,2.61
		c-2.89,2.67-6.23,4.78-9.82,6.38c-0.97,0.43-1.26,0.73-1.26,1.45c0.02,5.18,0.01,4.26,0.01,9.44c0,0.22,0,0.45,0,0.72
		c0.27,0.02,0.49,0.04,0.71,0.04c18.51,0,37.03,0,55.54,0.01c0.55,0,0.74-0.14,0.73-0.72C60.47,54.16,60.48,56.69,60.48,53.1z"/>
	<linearGradient id="SVGID_3_" gradientUnits="userSpaceOnUse" x1="10.6545" y1="-6.6126" x2="72.2455" y2="51.0709">
		<stop  offset="0" style="stop-color:#009BBB"/>
		<stop  offset="1" style="stop-color:#020086"/>
	</linearGradient>
	<path class="st3" d="M10.59,19.56c3.37,1.19,6.15,3.27,8.78,5.62c2.58,2.31,5.57,3.7,9.1,3.77c2.95,0.06,5.58-0.9,8.01-2.51
		c7.36-4.9,14.73-9.8,22.09-14.69c0.61-0.41,1.45-0.71,1.75-1.28c0.32-0.6,0.12-1.47,0.13-2.22c0.01-0.9,0,0.67,0-0.24
		C41.43,8,22.49,8,3.51,8c0,4.41,0,6.32,0,10.77c0.3-0.02,0.52-0.01,0.74-0.04C6.44,18.46,8.54,18.84,10.59,19.56z"/>
	<linearGradient id="SVGID_4_" gradientUnits="userSpaceOnUse" x1="9.2409" y1="-7.8399" x2="73.2341" y2="52.0934">
		<stop  offset="0" style="stop-color:#009BBB"/>
		<stop  offset="1" style="stop-color:#020086"/>
	</linearGradient>
	<path class="st4" d="M35.54,35.98c3.08,0.12,5.86-0.74,8.4-2.42c5.39-3.57,10.77-7.15,16.14-10.75c0.21-0.14,0.38-0.48,0.39-0.73
		c0.03-1.66,0.02-3.32,0.02-4.97c0-0.13-0.03-0.26-0.06-0.46c-0.23,0.14-0.4,0.25-0.57,0.36c-1.67,1.12-3.33,2.23-5,3.35
		c-5.07,3.39-10.13,6.79-15.2,10.18c-2.89,1.93-6.03,2.82-9.49,2.16c-1.25-0.24-2.47-0.66-3.7-1
		C28.34,33.94,32.46,35.86,35.54,35.98z"/>
	<linearGradient id="SVGID_5_" gradientUnits="userSpaceOnUse" x1="6.2016" y1="-4.5947" x2="70.1948" y2="55.3386">
		<stop  offset="0" style="stop-color:#009BBB"/>
		<stop  offset="1" style="stop-color:#020086"/>
	</linearGradient>
	<path class="st5" d="M60.49,29.19c0-0.15-0.03-0.3-0.06-0.52c-0.26,0.17-0.44,0.29-0.63,0.42c-4.4,2.95-8.78,5.93-13.21,8.84
		c-2.84,1.87-5.98,2.49-9.32,1.77c-1.19-0.26-2.34-0.67-3.56-1.03c0.09,0.1,0.16,0.17,0.23,0.24c4.9,4.76,11.77,5.45,17.49,1.7
		c2.91-1.91,5.77-3.89,8.66-5.82c0.32-0.21,0.41-0.45,0.41-0.81C60.48,32.38,60.49,30.79,60.49,29.19z"/>
	<linearGradient id="SVGID_6_" gradientUnits="userSpaceOnUse" x1="-10.9124" y1="13.6785" x2="53.0808" y2="73.6118">
		<stop  offset="0" style="stop-color:#009BBB"/>
		<stop  offset="1" style="stop-color:#020086"/>
	</linearGradient>
	<path class="st6" d="M3.52,41.23c0,0.15,0.02,0.3,0.04,0.54c0.28-0.18,0.48-0.31,0.68-0.44c3.11-2.09,6.24-4.15,9.31-6.29
		c2.87-2,6.01-2.46,9.36-1.8c1.25,0.25,2.46,0.69,3.67,1.04c-0.02-0.02-0.05-0.08-0.11-0.13c-1.43-1.34-3.01-2.48-4.83-3.21
		c-4-1.6-7.96-1.62-11.72,0.67c-2.06,1.25-4.03,2.66-6.02,4.03c-0.2,0.14-0.36,0.49-0.37,0.74C3.5,38,3.52,39.62,3.52,41.23z"/>
	<linearGradient id="SVGID_7_" gradientUnits="userSpaceOnUse" x1="3.1643" y1="-1.3517" x2="67.1575" y2="58.5816">
		<stop  offset="0" style="stop-color:#009BBB"/>
		<stop  offset="1" style="stop-color:#020086"/>
	</linearGradient>
	<path class="st7" d="M54.37,44.83c-1.73,1.14-3.6,1.91-5.69,2.14c-2.47,0.28-4.8-0.25-7.07-1.15c-0.17-0.07-0.35-0.13-0.52-0.2
		c0.02,0.16,0.09,0.24,0.16,0.31c0.42,0.36,0.82,0.75,1.26,1.08c3.39,2.6,7.15,3.71,11.41,2.85c2.38-0.48,4.41-1.7,6.35-3.09
		c0.14-0.1,0.21-0.38,0.21-0.58c0.02-1.19,0.01-2.38,0.01-3.56c0-0.59,0-1.17,0-1.89c-0.3,0.2-0.48,0.31-0.66,0.43
		C58.01,42.39,56.2,43.62,54.37,44.83z"/>
	<linearGradient id="SVGID_8_" gradientUnits="userSpaceOnUse" x1="-7.8661" y1="10.4259" x2="56.127" y2="70.3592">
		<stop  offset="0" style="stop-color:#009BBB"/>
		<stop  offset="1" style="stop-color:#020086"/>
	</linearGradient>
	<path class="st8" d="M8.43,26.66c2.9-1.15,5.84-1.01,8.78-0.1c0.66,0.2,1.29,0.46,1.94,0.69c-1.01-1.21-2.24-2.1-3.6-2.82
		C11.83,22.47,8,22.2,4.06,23.7c-0.22,0.08-0.51,0.35-0.52,0.54c-0.04,1.76-0.02,3.52-0.02,5.43c0.83-0.56,1.53-1.06,2.26-1.5
		C6.64,27.63,7.5,27.04,8.43,26.66z"/>
</g>
</svg>
