<?xml version="1.0" encoding="utf-8"?>
<!-- Generator: Adobe Illustrator 23.0.4, SVG Export Plug-In . SVG Version: 6.00 Build 0)  -->
<svg version="1.1" id="Layer_1" xmlns="http://www.w3.org/2000/svg" xmlns:xlink="http://www.w3.org/1999/xlink" x="0px" y="0px"
	 viewBox="0 0 64 64" style="enable-background:new 0 0 64 64;" xml:space="preserve">
<style type="text/css">
	.st0{fill:url(#SVGID_1_);}
	.st1{fill:url(#SVGID_2_);}
	.st2{fill:#FFFFFF;}
	.st3{fill:url(#SVGID_3_);}
	.st4{fill:url(#SVGID_4_);}
	.st5{fill:url(#SVGID_5_);}
	.st6{fill:url(#SVGID_6_);}
	.st7{fill:url(#SVGID_7_);}
	.st8{fill:url(#SVGID_8_);}
	.st9{fill:url(#SVGID_9_);}
	.st10{fill:url(#SVGID_10_);}
	.st11{fill:url(#SVGID_11_);}
	.st12{fill:url(#SVGID_12_);}
</style>
<g>
	<linearGradient id="SVGID_1_" gradientUnits="userSpaceOnUse" x1="10.1987" y1="-4.2969" x2="45.2942" y2="56.4904">
		<stop  offset="0" style="stop-color:#F1F3BA"/>
		<stop  offset="0.2848" style="stop-color:#ECDA89"/>
		<stop  offset="0.932" style="stop-color:#DF9D0D"/>
		<stop  offset="1" style="stop-color:#DE9600"/>
	</linearGradient>
	<path class="st0" d="M60,48H0V4c0,0,0-4,4-4c6.05,0,17.13,0,20,0c4,0,4,4,4,4l0,4h28l4,4V48z"/>
	<linearGradient id="SVGID_2_" gradientUnits="userSpaceOnUse" x1="10.1987" y1="-4.2969" x2="45.2942" y2="56.4904">
		<stop  offset="0" style="stop-color:#B2A88F"/>
		<stop  offset="1" style="stop-color:#31281F"/>
	</linearGradient>
	<path class="st1" d="M23.99,4C23.99,4.03,24,4.06,24,4.09L24,8l0,4h4h26.34L56,13.66V44H4L4,4H23.99 M24,0C21.13,0,10.05,0,4,0
		C0,0,0,4,0,4v44h60V12l-4-4H28l0-4C28,4,28,0,24,0L24,0z"/>
</g>
<rect x="4" y="8" class="st2" width="52" height="32"/>
<g>
	<linearGradient id="SVGID_3_" gradientUnits="userSpaceOnUse" x1="14.9545" y1="3.366" x2="45.5429" y2="56.3468">
		<stop  offset="0" style="stop-color:#F1F3BA"/>
		<stop  offset="0.2848" style="stop-color:#ECDA89"/>
		<stop  offset="0.932" style="stop-color:#DF9D0D"/>
		<stop  offset="1" style="stop-color:#DE9600"/>
	</linearGradient>
	<path class="st3" d="M60,48H0V12l20,0c0,0,4.07-4,4.08-4c1.14,0,6.27,0,7.39,0C45.76,8,53.96,8,56,8c4,0,4,4,4,4V48z"/>
	<linearGradient id="SVGID_4_" gradientUnits="userSpaceOnUse" x1="14.9545" y1="3.366" x2="45.5429" y2="56.3468">
		<stop  offset="0" style="stop-color:#B2A88F"/>
		<stop  offset="1" style="stop-color:#31281F"/>
	</linearGradient>
	<path class="st4" d="M55.99,12c0.01,0.03,0.01,0.06,0.01,0.09V44H4V16l16,0h1.64l1.17-1.15c0.86-0.84,2.04-2.01,2.91-2.85h5.76
		H55.99 M56,8c-2.04,0-10.24,0-24.53,0c-1.12,0-6.25,0-7.39,0C24.07,8,20,12,20,12L0,12v36h60V12C60,12,60,8,56,8L56,8z"/>
</g>
<g>
	<linearGradient id="SVGID_5_" gradientUnits="userSpaceOnUse" x1="17.236" y1="22.6802" x2="62.764" y2="65.3198">
		<stop  offset="0" style="stop-color:#009BBB"/>
		<stop  offset="1" style="stop-color:#020086"/>
	</linearGradient>
	<rect x="16" y="24" class="st5" width="48" height="40"/>
	<rect x="20" y="28" class="st2" width="40" height="32"/>
	<linearGradient id="SVGID_6_" gradientUnits="userSpaceOnUse" x1="7.4973" y1="30.3181" x2="55.143" y2="74.9411">
		<stop  offset="0" style="stop-color:#009BBB"/>
		<stop  offset="1" style="stop-color:#020086"/>
	</linearGradient>
	<path class="st6" d="M61.36,59.07c0-0.14-0.02-0.28-0.03-0.45c-0.1,0.04-0.16,0.05-0.21,0.07c-2.1,1.03-4.31,1.16-6.58,0.65
		c-2.56-0.58-4.76-1.81-6.7-3.45c-2.07-1.75-4.03-3.6-6.04-5.41c-1.02-0.92-2.08-1.78-3.38-2.33c-3.99-1.69-7.83-1.37-11.49,1.86
		c-2.16,1.91-4.67,3.42-7.36,4.56c-0.73,0.31-0.95,0.52-0.94,1.04c0.01,3.7,0.01,3.04,0.01,6.74c0,0.16,0,0.32,0,0.51
		c0.2,0.01,0.37,0.03,0.53,0.03c13.88,0,27.77,0,41.66,0.01c0.41,0,0.55-0.1,0.55-0.51C61.35,59.83,61.36,61.63,61.36,59.07z"/>
	<linearGradient id="SVGID_7_" gradientUnits="userSpaceOnUse" x1="23.5476" y1="14.427" x2="71.3618" y2="59.2078">
		<stop  offset="0" style="stop-color:#009BBB"/>
		<stop  offset="1" style="stop-color:#020086"/>
	</linearGradient>
	<path class="st7" d="M23.94,35.12c2.53,0.85,4.61,2.34,6.59,4.02c1.93,1.65,4.18,2.64,6.82,2.7c2.21,0.04,4.18-0.64,6-1.79
		c5.52-3.5,11.05-7,16.57-10.5c0.46-0.29,1.09-0.51,1.32-0.92c0.24-0.43,0.09-1.05,0.1-1.59c0.01-0.64,0-1.28,0-1.93
		c-14.27,0-28.47,0-42.7,0c0,3.15,0,6.27,0,9.45c0.22-0.01,0.39-0.01,0.56-0.03C20.83,34.33,22.4,34.6,23.94,35.12z"/>
	<linearGradient id="SVGID_8_" gradientUnits="userSpaceOnUse" x1="22.4595" y1="13.9472" x2="71.2136" y2="59.6083">
		<stop  offset="0" style="stop-color:#009BBB"/>
		<stop  offset="1" style="stop-color:#020086"/>
	</linearGradient>
	<path class="st8" d="M42.66,46.84c2.31,0.08,4.39-0.53,6.3-1.73C53,42.56,57.04,40,61.07,37.43c0.15-0.1,0.29-0.34,0.29-0.52
		c0.03-1.18,0.01-2.37,0.01-3.55c0-0.09-0.02-0.19-0.04-0.33c-0.17,0.1-0.3,0.18-0.43,0.26c-1.25,0.8-2.5,1.59-3.75,2.39
		c-3.8,2.42-7.6,4.85-11.4,7.27c-2.17,1.38-4.52,2.01-7.12,1.54c-0.94-0.17-1.85-0.47-2.78-0.71
		C37.26,45.38,40.34,46.76,42.66,46.84z"/>
	<linearGradient id="SVGID_9_" gradientUnits="userSpaceOnUse" x1="20.3498" y1="16.2063" x2="68.7247" y2="61.5123">
		<stop  offset="0" style="stop-color:#009BBB"/>
		<stop  offset="1" style="stop-color:#020086"/>
	</linearGradient>
	<path class="st9" d="M61.37,41.99c0-0.11-0.02-0.21-0.04-0.37c-0.19,0.12-0.33,0.21-0.47,0.3c-3.3,2.11-6.59,4.24-9.91,6.31
		c-2.13,1.33-4.49,1.78-6.99,1.26c-0.89-0.18-1.76-0.48-2.67-0.73c0.07,0.07,0.12,0.12,0.17,0.17c3.67,3.4,8.83,3.89,13.12,1.21
		c2.18-1.36,4.32-2.78,6.49-4.16c0.24-0.15,0.31-0.32,0.31-0.58C61.36,44.27,61.37,43.13,61.37,41.99z"/>
	<linearGradient id="SVGID_10_" gradientUnits="userSpaceOnUse" x1="7.8131" y1="30.0434" x2="55.9524" y2="75.1286">
		<stop  offset="0" style="stop-color:#009BBB"/>
		<stop  offset="1" style="stop-color:#020086"/>
	</linearGradient>
	<path class="st10" d="M18.64,50.6c0,0.11,0.02,0.22,0.03,0.39c0.21-0.13,0.36-0.22,0.51-0.32c2.33-1.5,4.68-2.97,6.98-4.49
		c2.15-1.43,4.51-1.76,7.02-1.28c0.94,0.18,1.85,0.49,2.76,0.74c-0.01-0.01-0.04-0.06-0.08-0.09c-1.07-0.96-2.26-1.77-3.63-2.29
		c-3-1.14-5.97-1.16-8.79,0.48c-1.55,0.9-3.02,1.9-4.52,2.88c-0.15,0.1-0.27,0.35-0.27,0.53C18.63,48.28,18.64,49.44,18.64,50.6z"/>
	<linearGradient id="SVGID_11_" gradientUnits="userSpaceOnUse" x1="18.4119" y1="18.618" x2="66.29" y2="63.4586">
		<stop  offset="0" style="stop-color:#009BBB"/>
		<stop  offset="1" style="stop-color:#020086"/>
	</linearGradient>
	<path class="st11" d="M56.78,53.16c-1.3,0.82-2.7,1.36-4.26,1.53c-1.85,0.2-3.6-0.18-5.3-0.82c-0.13-0.05-0.26-0.09-0.39-0.14
		c0.02,0.11,0.06,0.17,0.12,0.22c0.31,0.26,0.61,0.53,0.94,0.77c2.54,1.86,5.36,2.65,8.55,2.03c1.79-0.35,3.31-1.21,4.76-2.21
		c0.11-0.07,0.16-0.27,0.16-0.42c0.01-0.85,0.01-1.7,0.01-2.55c0-0.42,0-0.84,0-1.35c-0.22,0.14-0.36,0.22-0.5,0.31
		C59.51,51.42,58.15,52.3,56.78,53.16z"/>
	<linearGradient id="SVGID_12_" gradientUnits="userSpaceOnUse" x1="10.2497" y1="28.1004" x2="57.8649" y2="72.6949">
		<stop  offset="0" style="stop-color:#009BBB"/>
		<stop  offset="1" style="stop-color:#020086"/>
	</linearGradient>
	<path class="st12" d="M22.33,40.19c2.17-0.82,4.38-0.72,6.58-0.07c0.49,0.15,0.97,0.33,1.46,0.5c-0.75-0.87-1.68-1.5-2.7-2.02
		c-2.79-1.4-5.67-1.6-8.62-0.53c-0.16,0.06-0.38,0.25-0.39,0.38c-0.03,1.26-0.02,2.51-0.02,3.88c0.62-0.4,1.15-0.76,1.69-1.07
		C20.98,40.88,21.62,40.45,22.33,40.19z"/>
</g>
</svg>
