<svg id="Layer_1" data-name="Layer 1" xmlns="http://www.w3.org/2000/svg" xmlns:xlink="http://www.w3.org/1999/xlink" viewBox="0 0 50 48"><defs><style>.cls-1{fill:#231f20;}.cls-2{fill:#0f8140;}.cls-3{fill:url(#linear-gradient);}</style><linearGradient id="linear-gradient" x1="12" y1="18" x2="48" y2="18" gradientUnits="userSpaceOnUse"><stop offset="0" stop-color="#32b44a"/><stop offset="1" stop-color="#51b848"/></linearGradient></defs><title>datatree model_check</title><rect class="cls-1" y="12" width="4" height="4"/><rect class="cls-1" x="8" y="12" width="40" height="4"/><rect class="cls-1" y="20" width="4" height="4"/><rect class="cls-1" x="8" y="20" width="40" height="4"/><rect class="cls-1" y="28" width="4" height="4"/><rect class="cls-1" x="8" y="28" width="40" height="4"/><rect class="cls-1" y="36" width="4" height="4"/><rect class="cls-1" x="8" y="36" width="40" height="4"/><rect class="cls-1" y="44" width="4" height="4"/><rect class="cls-1" x="8" y="44" width="28" height="4"/><polygon class="cls-2" points="14 14 26 26 50 2 50 14 26 38 14 26 14 14"/><polygon class="cls-3" points="12 12 24 24 48 0 48 12 24 36 12 24 12 12"/></svg>