<?xml version="1.0" encoding="UTF-8" standalone="no"?>
<!-- Created with Inkscape (http://www.inkscape.org/) -->

<svg
   xmlns:dc="http://purl.org/dc/elements/1.1/"
   xmlns:cc="http://creativecommons.org/ns#"
   xmlns:rdf="http://www.w3.org/1999/02/22-rdf-syntax-ns#"
   xmlns:svg="http://www.w3.org/2000/svg"
   xmlns="http://www.w3.org/2000/svg"
   xmlns:sodipodi="http://sodipodi.sourceforge.net/DTD/sodipodi-0.dtd"
   xmlns:inkscape="http://www.inkscape.org/namespaces/inkscape"
   width="16.934523mm"
   height="14.823346mm"
   viewBox="0 0 16.934523 14.823346"
   version="1.1"
   id="svg109233"
   inkscape:version="0.92.1 r15371"
   sodipodi:docname="Open_Macro.svg">
  <defs
     id="defs109227">
    <linearGradient
       y2="65.903297"
       x2="4360.876"
       y1="22.9533"
       x1="4309.7476"
       gradientUnits="userSpaceOnUse"
       id="SVGID_267_">
      <stop
         id="stop4292"
         style="stop-color:#F1F3BA"
         offset="0" />
      <stop
         id="stop4294"
         style="stop-color:#ECDA89"
         offset="0.2848" />
      <stop
         id="stop4296"
         style="stop-color:#DF9D0D"
         offset="0.932" />
      <stop
         id="stop4298"
         style="stop-color:#DE9600"
         offset="1" />
    </linearGradient>
    <linearGradient
       y2="66.749603"
       x2="4348.3135"
       y1="21.963301"
       x1="4322.4561"
       gradientUnits="userSpaceOnUse"
       id="SVGID_268_">
      <stop
         id="stop4303"
         style="stop-color:#B2A88F"
         offset="0" />
      <stop
         id="stop4305"
         style="stop-color:#31281F"
         offset="1" />
    </linearGradient>
    <linearGradient
       y2="67.468903"
       x2="4347.0635"
       y1="8.3634005"
       x1="4312.939"
       gradientUnits="userSpaceOnUse"
       id="SVGID_265_">
      <stop
         id="stop4272"
         style="stop-color:#F1F3BA"
         offset="0" />
      <stop
         id="stop4274"
         style="stop-color:#ECDA89"
         offset="0.2848" />
      <stop
         id="stop4276"
         style="stop-color:#DF9D0D"
         offset="0.932" />
      <stop
         id="stop4278"
         style="stop-color:#DE9600"
         offset="1" />
    </linearGradient>
    <linearGradient
       y2="67.468903"
       x2="4347.0635"
       y1="8.3634005"
       x1="4312.939"
       gradientUnits="userSpaceOnUse"
       id="SVGID_266_">
      <stop
         id="stop4283"
         style="stop-color:#B2A88F"
         offset="0" />
      <stop
         id="stop4285"
         style="stop-color:#31281F"
         offset="1" />
    </linearGradient>
  </defs>
  <sodipodi:namedview
     id="base"
     pagecolor="#ffffff"
     bordercolor="#666666"
     borderopacity="1.0"
     inkscape:pageopacity="0.0"
     inkscape:pageshadow="2"
     inkscape:zoom="1.334375"
     inkscape:cx="49.145142"
     inkscape:cy="19.441207"
     inkscape:document-units="mm"
     inkscape:current-layer="layer1"
     showgrid="false"
     fit-margin-top="0"
     fit-margin-left="0"
     fit-margin-right="0"
     fit-margin-bottom="0"
     inkscape:window-width="460"
     inkscape:window-height="403"
     inkscape:window-x="25"
     inkscape:window-y="25"
     inkscape:window-maximized="0" />
  <metadata
     id="metadata109230">
    <rdf:RDF>
      <cc:Work
         rdf:about="">
        <dc:format>image/svg+xml</dc:format>
        <dc:type
           rdf:resource="http://purl.org/dc/dcmitype/StillImage" />
        <dc:title></dc:title>
      </cc:Work>
    </rdf:RDF>
  </metadata>
  <g
     inkscape:label="Layer 1"
     inkscape:groupmode="layer"
     id="layer1"
     transform="translate(-97.366062,-141.42166)">
    <g
       transform="matrix(0.26458333,0,0,0.26458333,-1041.3994,140.37001)"
       id="g4290">
      <linearGradient
         y2="67.468903"
         x2="4347.0635"
         y1="8.3634005"
         x1="4312.939"
         gradientUnits="userSpaceOnUse"
         id="linearGradient109194">
        <stop
           id="stop109186"
           style="stop-color:#F1F3BA"
           offset="0" />
        <stop
           id="stop109188"
           style="stop-color:#ECDA89"
           offset="0.2848" />
        <stop
           id="stop109190"
           style="stop-color:#DF9D0D"
           offset="0.932" />
        <stop
           id="stop109192"
           style="stop-color:#DE9600"
           offset="1" />
      </linearGradient>
      <path
         inkscape:connector-curvature="0"
         style="fill:url(#SVGID_265_)"
         id="path4281"
         d="M 4304,60 V 16 c 0,0 -0.3,-4 4,-4 4.3,0 20,0 20,0 0,0 4,0 4,4 0,4 0,4 0,4 h 24 c 0,0 4,0 4,4 0,4 0,36 0,36 z"
         class="st317" />
      <linearGradient
         y2="67.468903"
         x2="4347.0635"
         y1="8.3634005"
         x1="4312.939"
         gradientUnits="userSpaceOnUse"
         id="linearGradient109201">
        <stop
           id="stop109197"
           style="stop-color:#B2A88F"
           offset="0" />
        <stop
           id="stop109199"
           style="stop-color:#31281F"
           offset="1" />
      </linearGradient>
      <path
         inkscape:connector-curvature="0"
         style="fill:url(#SVGID_266_)"
         id="path4288"
         d="m 4327.9,16 c 0,0 0.1,0 0,0 l 0.1,4 v 4 h 4 23.9 c 0,0 0.1,0 0.1,0 v 32 h -48 V 16 h 19.9 m 0.1,-4 c 0,0 -15.7,0 -20,0 -4.3,0 -4,4 -4,4 v 44 h 56 c 0,0 0,-32 0,-36 0,-4 -4,-4 -4,-4 h -24 c 0,0 0,0 0,-4 0,-4 -4,-4 -4,-4 z"
         class="st318" />
    </g>
    <g
       transform="matrix(0.26458333,0,0,0.26458333,-1041.3994,140.37001)"
       id="g4310">
      <linearGradient
         y2="65.903297"
         x2="4360.876"
         y1="22.9533"
         x1="4309.7476"
         gradientUnits="userSpaceOnUse"
         id="linearGradient109213">
        <stop
           id="stop109205"
           style="stop-color:#F1F3BA"
           offset="0" />
        <stop
           id="stop109207"
           style="stop-color:#ECDA89"
           offset="0.2848" />
        <stop
           id="stop109209"
           style="stop-color:#DF9D0D"
           offset="0.932" />
        <stop
           id="stop109211"
           style="stop-color:#DE9600"
           offset="1" />
      </linearGradient>
      <path
         inkscape:connector-curvature="0"
         style="fill:url(#SVGID_267_)"
         id="path4301"
         d="m 4304,60 h 56 l 8,-28 c 0,0 0,-4 -4,-4 -4,0 -52,0 -52,0 z"
         class="st319" />
      <linearGradient
         y2="66.749603"
         x2="4348.3135"
         y1="21.963301"
         x1="4322.4561"
         gradientUnits="userSpaceOnUse"
         id="linearGradient109220">
        <stop
           id="stop109216"
           style="stop-color:#B2A88F"
           offset="0" />
        <stop
           id="stop109218"
           style="stop-color:#31281F"
           offset="1" />
      </linearGradient>
      <path
         inkscape:connector-curvature="0"
         style="fill:url(#SVGID_268_)"
         id="path4308"
         d="m 4363.8,32 -6.9,24 H 4309 l 6,-24 h 48.8 m 0.2,-4 c -4,0 -52,0 -52,0 l -8,32 h 56 l 8,-28 c 0,0 0,-4 -4,-4 z"
         class="st320" />
    </g>
    <g
       transform="matrix(0.26458333,0,0,0.26458333,-1041.3994,140.37001)"
       id="g4314">
      <polygon
         id="polygon4312"
         points="4356,20 4368,8 4368,20 " />
    </g>
    <path
       style="fill:none;stroke:#000000;stroke-width:1.05833328;stroke-miterlimit:10"
       inkscape:connector-curvature="0"
       id="path4316"
       d="m 113.2423,144.6298 c 0,0 -3.175,-4.78896 -5.82083,-1.56104"
       class="st20" />
  </g>
</svg>
