<?xml version="1.0" encoding="UTF-8" standalone="no"?>
<!-- Created with Inkscape (http://www.inkscape.org/) -->

<svg
   xmlns:dc="http://purl.org/dc/elements/1.1/"
   xmlns:cc="http://creativecommons.org/ns#"
   xmlns:rdf="http://www.w3.org/1999/02/22-rdf-syntax-ns#"
   xmlns:svg="http://www.w3.org/2000/svg"
   xmlns="http://www.w3.org/2000/svg"
   xmlns:sodipodi="http://sodipodi.sourceforge.net/DTD/sodipodi-0.dtd"
   xmlns:inkscape="http://www.inkscape.org/namespaces/inkscape"
   width="16.933344mm"
   height="14.552097mm"
   viewBox="0 0 16.933344 14.552097"
   version="1.1"
   id="svg108312"
   inkscape:version="0.92.1 r15371"
   sodipodi:docname="GMS_Properties_Macro.svg">
  <defs
     id="defs108306">
    <linearGradient
       gradientTransform="matrix(0.26458333,0,0,0.26458333,-1222.0726,113.02009)"
       y2="56.451302"
       x2="4988.8281"
       y1="20.322399"
       x1="4948.0449"
       gradientUnits="userSpaceOnUse"
       id="SVGID_280_">
      <stop
         id="stop4587"
         style="stop-color:#79B0E9"
         offset="0" />
      <stop
         id="stop4589"
         style="stop-color:#474B78"
         offset="1" />
    </linearGradient>
    <linearGradient
       y2="33.5"
       x2="4985"
       y1="33.5"
       x1="4973"
       gradientUnits="userSpaceOnUse"
       id="SVGID_283_">
      <stop
         id="stop4612"
         style="stop-color:#F7CEC9"
         offset="0" />
      <stop
         id="stop4614"
         style="stop-color:#D8AAA2"
         offset="1" />
    </linearGradient>
    <linearGradient
       y2="29.5"
       x2="4982"
       y1="29.5"
       x1="4967"
       gradientUnits="userSpaceOnUse"
       id="SVGID_282_">
      <stop
         id="stop4605"
         style="stop-color:#F7CEC9"
         offset="0" />
      <stop
         id="stop4607"
         style="stop-color:#D8AAA2"
         offset="1" />
    </linearGradient>
    <linearGradient
       y2="25"
       x2="4979"
       y1="25"
       x1="4963"
       gradientUnits="userSpaceOnUse"
       id="SVGID_281_">
      <stop
         id="stop4598"
         style="stop-color:#F7CEC9"
         offset="0" />
      <stop
         id="stop4600"
         style="stop-color:#D8AAA2"
         offset="1" />
    </linearGradient>
  </defs>
  <sodipodi:namedview
     id="base"
     pagecolor="#ffffff"
     bordercolor="#666666"
     borderopacity="1.0"
     inkscape:pageopacity="0.0"
     inkscape:pageshadow="2"
     inkscape:zoom="6.2052083"
     inkscape:cx="34.857168"
     inkscape:cy="21.785753"
     inkscape:document-units="mm"
     inkscape:current-layer="layer1"
     showgrid="false"
     fit-margin-top="0"
     fit-margin-left="0"
     fit-margin-right="0"
     fit-margin-bottom="0"
     inkscape:window-width="1920"
     inkscape:window-height="1018"
     inkscape:window-x="-8"
     inkscape:window-y="-8"
     inkscape:window-maximized="1" />
  <metadata
     id="metadata108309">
    <rdf:RDF>
      <cc:Work
         rdf:about="">
        <dc:format>image/svg+xml</dc:format>
        <dc:type
           rdf:resource="http://purl.org/dc/dcmitype/StillImage" />
        <dc:title></dc:title>
      </cc:Work>
    </rdf:RDF>
  </metadata>
  <g
     inkscape:label="Layer 1"
     inkscape:groupmode="layer"
     id="layer1"
     transform="translate(-86.027374,-114.343)">
    <rect
       style="fill:url(#SVGID_280_);stroke-width:0.26458332"
       id="rect4592"
       height="11.641666"
       width="12.7"
       class="st345"
       y="117.25343"
       x="86.027374" />
    <rect
       style="fill:#ffffff;stroke-width:0.26458332"
       id="rect4594"
       height="9.5249996"
       width="10.583333"
       class="st0"
       y="118.31175"
       x="87.085709" />
    <polygon
       transform="matrix(0.26458333,0,0,0.26458333,-1222.0726,113.02009)"
       style="fill:#f7cec9"
       id="polygon4596"
       points="4969,23 4957,30 4955,30 4953,28 4953,26 4954,25 4969,16 "
       class="st346" />
    <polygon
       transform="matrix(0.26458333,0,0,0.26458333,-1222.0726,113.02009)"
       style="fill:url(#SVGID_281_)"
       id="polygon4603"
       points="4963,29 4964,30 4965,31 4968,30 4979,24 4979,22 4979,20 4978,19 4976,19 4963,27 "
       class="st347" />
    <polygon
       transform="matrix(0.26458333,0,0,0.26458333,-1222.0726,113.02009)"
       style="fill:url(#SVGID_282_)"
       id="polygon4610"
       points="4967,31 4967,32 4967,34 4969,35 4971,35 4981,29 4982,27 4982,25 4980,24 4978,24 "
       class="st348" />
    <polygon
       transform="matrix(0.26458333,0,0,0.26458333,-1222.0726,113.02009)"
       style="fill:url(#SVGID_283_)"
       id="polygon4617"
       points="4975,33 4973,35 4973,37 4974,38 4976,38 4980,36 4985,33 4985,31 4983,29 4981,29 "
       class="st349" />
    <polygon
       transform="matrix(0.26458333,0,0,0.26458333,-1222.0726,113.02009)"
       style="fill:#f7cec9"
       id="polygon4619"
       points="4982,26 4980,24 4980,23 4980,20 4978,18 4975,20 4974,21 4973,24 4972,25 4969,26 4969,24 4970,15 4977,9 4986,8 4998,7 4998,23 4994,25 4994,28 4986,33 4985,31 4982,29 "
       class="st346" />
    <path
       style="fill:#824f4e;stroke-width:0.26458332"
       inkscape:connector-curvature="0"
       id="path4621"
       d="m 89.75801,121.08988 1.05833,-0.60854 c 0,0.15875 0.0529,0.3175 0.13229,0.47625 0.21167,0.34396 0.58208,0.52917 0.9525,0.50271 -0.0265,0.21166 0.0265,0.39687 0.13229,0.58208 0.26459,0.47625 0.87313,0.66146 1.37584,0.39688 0,0.29104 0.13229,0.58208 0.44979,0.79375 0.34396,0.23812 0.76729,0.23812 1.13771,0.0265 l 0.58208,-0.34396 1.13771,-0.66146 2.38125,-1.37583 c 0.47625,-0.26459 0.58208,-0.74084 0.58208,-1.05834 l 1.05833,-0.60854 c 0.1323,-0.0794 0.18521,-0.23812 0.10584,-0.39687 v -4.10105 c -0.0794,-0.13229 -0.50271,-0.1852 -0.635,-0.10583 l -3.28084,0.26458 c -0.39687,-0.0265 -1.56104,0.26459 -1.95791,0.21167 -0.15875,-0.0265 -0.52917,-0.0529 -2.2225,1.56104 -0.13229,0.13229 -0.21167,0.29104 -0.26459,0.44979 l -3.78354,2.19605 c -0.58208,0.34395 -0.71437,1.16416 -0.15875,1.66687 0.3175,0.34396 0.82021,0.37042 1.21709,0.13229 z m 8.89,-0.68792 -1.5875,0.92605 c 0,-0.15875 -0.0529,-0.3175 -0.1323,-0.47625 -0.15875,-0.26459 -0.39687,-0.42334 -0.66145,-0.47625 0.0794,-0.26459 0.0529,-0.55563 -0.0794,-0.82021 -0.13229,-0.23813 -0.34396,-0.37042 -0.58208,-0.44979 0.10583,-0.23813 0.10583,-0.50271 0.0265,-0.74084 0.5027,0.0529 1.1377,-0.0265 1.79916,-0.39687 0.0265,-0.0265 0.0529,-0.0265 0.10584,-0.0529 0.13229,-0.0794 0.15875,-0.26459 0.0794,-0.39688 -0.0794,-0.13229 -0.26458,-0.15875 -0.39687,-0.0794 -0.0265,0.0265 -0.0529,0.0265 -0.0794,0.0529 -1.13771,0.66146 -2.27542,0.15875 -2.27542,0.13229 -0.0794,-0.0265 -0.15875,-0.0265 -0.23812,0 -0.44979,0.23813 -0.84667,0.42334 -0.84667,0.42334 -0.0794,0.0265 -0.13229,0.10583 -0.15875,0.21166 l -0.13229,0.7673 c -0.0794,0.39687 -0.44979,0.55562 -0.74083,0.635 l 0.0794,-2.24896 c 0,-0.10584 0.0529,-0.21167 0.13229,-0.29104 1.13771,-1.0848 1.66688,-1.4023 1.79917,-1.42875 0.44979,0.0529 2.06375,-0.21167 2.06375,-0.21167 0.0529,0 0.10583,-0.0265 0.15875,-0.0529 l 3.06917,-0.13229 v 3.59833 l -0.97896,0.55563 c -0.10583,0.0529 -0.15875,0.1852 -0.13229,0.3175 0,0.0265 0.0794,0.42333 -0.29104,0.635 z m -3.75709,-1.21708 -1.19062,0.68792 c 0.26458,-0.18521 0.42333,-0.44979 0.47625,-0.76729 l 0.10583,-0.635 c 0.10583,-0.0529 0.26458,-0.1323 0.44979,-0.23813 0.15875,0 0.34396,0.0794 0.42334,0.23813 0.13229,0.21166 0.0529,0.5027 -0.15875,0.635 z m -0.89958,3.46604 c -0.13229,-0.21166 -0.0529,-0.50271 0.15875,-0.635 l 1.77271,-1.03187 c 0.21166,-0.13229 0.50271,-0.0529 0.635,0.15875 0.13229,0.21166 0.0529,0.50271 -0.15875,0.635 l -1.13771,0.66146 -0.635,0.37041 c -0.23813,0.13229 -0.50271,0.0529 -0.635,-0.15875 z m -1.50813,-0.87312 c -0.13229,-0.21167 -0.0529,-0.50271 0.15875,-0.635 l 2.51355,-1.45521 c 0.21166,-0.13229 0.5027,-0.0529 0.635,0.15875 0.13229,0.21167 0.0529,0.50271 -0.15875,0.635 l -1.77271,1.03187 -0.76729,0.42334 c -0.21167,0.13229 -0.47625,0.0529 -0.60855,-0.15875 z m -0.92604,-1.74625 0.76729,-0.44979 v 0.0265 c 0,0.1852 0.0794,0.34395 0.21167,0.44979 0.13229,0.10583 0.3175,0.15875 0.47625,0.10583 0.13229,-0.0265 0.23813,-0.0794 0.37042,-0.13229 l -1.00542,0.58208 -0.34396,0.21167 c -0.21166,0.13229 -0.50271,0.0529 -0.635,-0.15875 -0.15875,-0.21167 -0.0794,-0.50271 0.15875,-0.635 z m -2.77812,0.42333 c -0.13229,-0.21167 -0.0529,-0.50271 0.15875,-0.635 l 3.43958,-1.98437 -0.0529,1.11125 -1.08479,0.635 c 0,0 0,0 0,0 l -1.85208,1.08479 c -0.21167,0.0794 -0.50271,0 -0.60854,-0.21167 z"
       class="st350" />
    <rect
       style="fill:#58595b;stroke-width:0.26458332"
       id="rect4623"
       height="1.0583333"
       width="2.1166666"
       class="st351"
       y="123.868"
       x="88.144043" />
    <rect
       style="fill:#58595b;stroke-width:0.26458332"
       id="rect4625"
       height="1.0583333"
       width="5.2916665"
       class="st351"
       y="123.868"
       x="91.319046" />
    <rect
       style="fill:#58595b;stroke-width:0.26458332"
       id="rect4627"
       height="1.0583333"
       width="2.1166666"
       class="st351"
       y="125.98467"
       x="88.144043" />
    <rect
       style="fill:#58595b;stroke-width:0.26458332"
       id="rect4629"
       height="1.0583333"
       width="5.2916665"
       class="st351"
       y="125.98467"
       x="91.319046" />
    <rect
       style="fill:#0072bc;stroke-width:0.26458332"
       id="rect4631"
       height="5.0270834"
       width="2.3812499"
       class="st352"
       y="114.343"
       x="100.57947" />
  </g>
</svg>
