<?xml version="1.0" encoding="utf-8"?>
<!-- Generator: Adobe Illustrator 24.0.3, SVG Export Plug-In . SVG Version: 6.00 Build 0)  -->
<svg version="1.1" id="Layer_1" xmlns="http://www.w3.org/2000/svg" xmlns:xlink="http://www.w3.org/1999/xlink" x="0px" y="0px"
	 viewBox="0 0 64 64" style="enable-background:new 0 0 64 64;" xml:space="preserve">
<style type="text/css">
	.st0{fill:url(#SVGID_1_);}
</style>
<g>
	<linearGradient id="SVGID_1_" gradientUnits="userSpaceOnUse" x1="10.8756" y1="-3.1244" x2="49.1244" y2="63.1244">
		<stop  offset="0" style="stop-color:#FFF719"/>
		<stop  offset="0.4795" style="stop-color:#CEE80E"/>
		<stop  offset="1" style="stop-color:#94D600"/>
	</linearGradient>
	<rect x="2" y="2" class="st0" width="56" height="56"/>
	<path d="M56,4v52H4V4H56 M60,0H0v60h60V0L60,0z"/>
</g>
<rect x="28" width="4" height="60"/>
<rect y="28" width="60" height="4"/>
<rect x="16" y="4" width="4" height="26"/>
<rect x="4" y="16" width="26" height="4"/>
<rect x="4" y="8" width="12" height="4"/>
<rect x="8" y="4" width="4" height="12"/>
<rect x="40" y="32" width="4" height="24"/>
<rect x="32" y="40" width="24" height="4"/>
<rect x="48" y="44" width="4" height="12"/>
<rect x="44" y="48" width="12" height="4"/>
</svg>
