<?xml version="1.0" encoding="utf-8"?>
<!-- Generator: Adobe Illustrator 23.0.4, SVG Export Plug-In . SVG Version: 6.00 Build 0)  -->
<svg version="1.1" id="Layer_1" xmlns="http://www.w3.org/2000/svg" xmlns:xlink="http://www.w3.org/1999/xlink" x="0px" y="0px"
	 viewBox="0 0 64 64" style="enable-background:new 0 0 64 64;" xml:space="preserve">
<style type="text/css">
	.st0{fill:#D7D3C7;}
</style>
<g>
	<path class="st0" d="M31.99,58C10.56,58,10.01,48.38,10,47.97l0-32.17C10.01,15.43,10.56,6,31.85,6H32
		c21.43,0.04,21.99,9.53,22,9.94V48C53.99,48.38,53.44,58,31.99,58L31.99,58z"/>
	<g>
		<path d="M31.85,8l0.14,0C47.26,8.03,51.75,13.22,52,16v32c0,0.08-0.86,8-20.01,8C16.71,56,12.24,50.73,12,47.91V15.8
			c0-0.01,0.22-1.5,1.79-3.05C15.98,10.58,20.89,8,31.85,8 M31.85,4C8,4,8,15.8,8,15.8V48c0,0,0,12,23.99,12c0,0,0,0,0.01,0
			c24,0,24-12,24-12V15.9c0,0,0-11.86-24-11.9C31.95,4,31.9,4,31.85,4L31.85,4z"/>
	</g>
</g>
<g>
	<path class="st0" d="M32,42c-21.75-0.01-22-10.1-22-10.2c0.01-0.37,0.57-9.79,22-9.8c11.72,0,17.12,2.94,19.59,5.41
		C53.9,29.72,54,31.98,54,32c-0.01,0.38-0.56,10-21.96,10H32z"/>
	<g>
		<path d="M32.01,24C47.19,24,51.7,29.21,52,32.04C51.91,32.68,50.4,40,32,40c-10.48,0-15.42-2.45-17.71-4.49
			c-1.92-1.71-2.24-3.38-2.29-3.76C12.1,31.1,13.64,24,32,24H32.01L32.01,24 M32.01,20c0,0-0.01,0-0.01,0C8,20,8,31.8,8,31.8
			S8,43.99,32,44c0.01,0,0.02,0,0.03,0C56,44,56,32,56,32S56,20,32.01,20L32.01,20z"/>
	</g>
</g>
<g>
	<rect x="12" y="16" class="st0" width="40" height="16"/>
</g>
<g>
	<path class="st0" d="M32,26c-21.75-0.01-22-10.1-22-10.2C10.01,15.43,10.57,6,32,6c11.72,0,17.12,2.94,19.59,5.41
		C53.9,13.72,54,15.98,54,16c-0.01,0.38-0.56,10-21.97,10H32z"/>
	<g>
		<path d="M32.01,8C47.19,8,51.7,13.21,52,16.04C51.91,16.68,50.4,24,32,24c-10.48,0-15.42-2.45-17.71-4.49
			c-1.92-1.71-2.24-3.38-2.29-3.76C12.1,15.1,13.64,8,32,8H32.01L32.01,8 M32.01,4c0,0-0.01,0-0.01,0C8,4,8,15.8,8,15.8
			S8,27.99,32,28c0.01,0,0.02,0,0.03,0C56,28,56,16,56,16S56,4,32.01,4L32.01,4z"/>
	</g>
</g>
</svg>
